<svg xmlns="http://www.w3.org/2000/svg" viewBox="0 0 32 32">
  <rect width="32" height="32" rx="4" fill="#006039"/>
  <g transform="translate(2.5,3.8) scale(0.0269,-0.0269) translate(-18,-828)" fill="#B8860B">
    <path d="M141 554C215 536 243 528 288 515C218 461 151 435 24 411C61 357 80 322 96 272C267 324 355 372 443 463C491 445 514 435 568 409L595 453C610 414 618 384 625 340C649 339 663 339 671 339C724 339 759 342 783 348C820 356 847 376 865 406C892 451 906 540 918 757C920 798 921 810 924 826C899 823 856 822 789 822H248C158 822 120 823 81 828V676C133 680 174 681 243 681H407C401 658 396 647 383 623C278 650 278 650 236 660ZM758 681C753 595 746 543 735 512C726 484 714 478 671 478C657 478 634 479 614 481L650 538C593 560 574 567 526 582C544 619 549 633 563 681ZM427 220C427 263 428 278 431 302H273C277 278 278 258 278 219V32C278 -59 315 -78 491 -78C630 -78 687 -70 720 -45C754 -20 767 16 776 105C802 56 816 23 845 -52L986 38C939 135 897 208 831 311L702 232C730 189 740 172 757 142C717 149 676 161 632 180C632 63 629 60 509 60C439 60 427 64 427 89ZM152 -67C212 31 241 104 270 226L138 284C107 174 79 115 18 34ZM681 217C632 290 595 337 534 406L412 328C467 266 503 213 548 127Z"/>
  </g>
</svg>
