<?xml version="1.0" encoding="utf-8"?>
<!DOCTYPE svg PUBLIC "-//W3C//DTD SVG 1.0//EN" "http://www.w3.org/TR/2001/REC-SVG-20010904/DTD/svg10.dtd">
<svg version="1.0" xmlns="http://www.w3.org/2000/svg" width="1390px" height="1570px" viewBox="0 0 1390 1570" preserveAspectRatio="xMidYMid meet">
 <g fill="#000000">
  <path d="M710 1505 l0 -56 4.4 0 c3.6 0 4.6 0.4 5.1 2 0.8 2.6 1.3 2.5 6.9 -0.6 4 -2.3 5.6 -2.6 11.1 -2.2 7.6 0.5 10.8 2.4 14.5 8.9 2.5 4.4 2.5 4.6 2.8 33.2 0.4 33.1 -0.2 37.3 -6.3 42.5 -3.4 3 -9 5.2 -13 5.2 -1.8 -0.1 -5.7 -1.3 -10.7 -3.5 -1.7 -0.7 -1.8 0.3 -1.8 12.9 l0 13.6 -6.5 0 -6.5 0 0 -56z m27.2 12 c1.5 -3 1.8 -6.5 1.8 -24.3 0 -15.6 -0.4 -21.6 -1.4 -24.1 -1.8 -4.4 -5 -5.4 -8.5 -2.8 l-2.6 1.9 -0.3 24.9 c-0.2 24.8 -0.2 24.9 2 26.6 3.5 2.8 7 1.9 9 -2.2z"/>
  <path d="M557.5 1537.1 c-6.8 -1.7 -12.4 -6.1 -14.4 -11.4 -0.6 -1.6 -1.1 -6.4 -1.1 -10.7 l0 -7.8 4.9 1.3 c6.8 1.8 7.1 2 7.1 7.1 0 6.5 3.1 9.4 10 9.4 6.5 0 10 -3 10 -8.6 0 -5.9 -2.5 -9.6 -14.9 -21.6 -15.2 -14.8 -18.9 -22.4 -16.2 -32.5 2.5 -9.3 10 -14.3 21.6 -14.3 14 0 21.5 7 21.5 20 l0 5 -6 0 -6 0 0 -3.9 c0 -5.2 -2.5 -8.1 -7.5 -8.7 -8.1 -1.1 -12.4 2.9 -11 10.3 0.6 3.2 2.8 5.9 13.4 16.3 7.2 7.1 13.5 14.2 14.6 16.5 2.9 6 3.2 17.1 0.7 22.7 -4 9.1 -15.3 13.6 -26.7 10.9z"/>
  <path d="M668.1 1536.6 c-2.4 -0.8 -5.9 -2.9 -7.7 -4.7 -6.3 -6.1 -6.4 -6.6 -6.4 -39.3 0 -27.2 0.2 -30 1.9 -33.4 3.9 -7.5 10.4 -11.2 19.8 -11.2 10.8 0.1 19.1 6.4 21.3 16.2 1.3 6.3 1.3 50.9 -0.1 56.8 -2.8 12.6 -16.1 19.7 -28.8 15.6z m11.5 -17.7 c1.7 -1.9 1.9 -4.1 2.2 -24.7 0.3 -23.7 -0.2 -27.3 -4.1 -29.3 -2.9 -1.6 -6.5 0.7 -7.8 5 -0.6 2.2 -0.9 12 -0.7 25.2 0.3 19.7 0.5 21.9 2.2 23.8 2.4 2.7 5.8 2.7 8.2 0z"/>
  <path d="M597 1479.7 l0 -57.4 5.1 -1.1 c8.5 -2 7.9 -3 7.9 14.3 0 8.5 0.2 15.5 0.4 15.5 0.2 0 2.1 -0.7 4.2 -1.6 2.6 -1.1 5.8 -1.5 9.9 -1.2 7.3 0.4 11.5 3.1 14.8 9.1 2.2 4.1 2.2 4.8 2.2 41.7 l0 37.5 -6.2 0.3 -6.3 0.3 0 -33.3 c0 -34.3 -0.5 -40 -4 -41.8 -2.9 -1.5 -8.9 -1.2 -12.1 0.7 l-2.9 1.7 -0.2 36.1 -0.3 36 -6.2 0.3 -6.3 0.3 0 -57.4z"/>
  <path d="M158 1490.5 l0 -6.5 159 0 159 0 0 6.5 0 6.5 -159 0 -159 0 0 -6.5z"/>
  <path d="M820.7 1496.3 c-0.4 -0.3 -0.7 -3.3 -0.7 -6.5 l0 -5.8 159.5 0 159.5 0 0 6.5 0 6.5 -158.8 0 c-87.4 0 -159.2 -0.3 -159.5 -0.7z"/>
  <path d="M603.3 1401 c-12.3 -1.3 -26.5 -5.5 -38.8 -11.4 -10.3 -5 -24.6 -14.6 -28.9 -19.4 l-1.9 -2.1 -4.1 3.5 c-6.7 5.7 -17 10.3 -26.1 11.5 -5.1 0.6 -26.4 0.9 -58.5 0.6 -53.5 -0.4 -53 -0.3 -63.8 -5.4 l-5.4 -2.5 -6.6 3.1 c-8.7 4 -16.9 5.1 -37.7 5.1 -19.2 0 -27.2 -1 -36 -4.6 -6.1 -2.4 -6.1 -2.4 -10.1 -0.5 -8.7 4.2 -12 4.6 -37.9 4.6 -21.8 0 -25.7 -0.2 -30.5 -1.9 -7.4 -2.5 -15.6 -7.6 -20.5 -12.5 l-3.9 -4.1 -4.6 4.4 c-5.6 5.5 -11.6 9.2 -18.9 11.8 -4.6 1.7 -9.1 2.1 -25.6 2.5 -12.5 0.4 -23.2 0.1 -28.5 -0.6 -19.6 -2.6 -34.5 -14.6 -41.2 -33.2 l-2.3 -6.4 -0.3 -99.7 -0.3 -99.8 -5.1 -2.6 c-10.1 -5.1 -18.9 -15.4 -23.9 -27.9 -2.3 -5.7 -2.4 -7.1 -2.4 -30 0 -22.4 0.1 -24.4 2.3 -30.6 5.6 -16.3 18.3 -28.2 34.6 -32.5 7.9 -2.1 52.9 -1.7 134.1 1.1 88.8 3.1 79.9 3.1 79.1 -0.1 -1.9 -7.3 -5.8 -33.3 -7.6 -50.4 -2.4 -22.5 -2.6 -44.6 -0.6 -58 0.8 -5.2 2 -15.2 2.6 -22.1 2.1 -24.1 9.4 -51.9 18.6 -70.7 6 -12 7.7 -13.9 17.4 -18.7 3 -1.5 5.6 -2.9 5.8 -3 0.2 -0.2 -1 -6.1 -2.7 -13.1 -9.1 -39.2 -10.6 -51 -10.5 -87.4 0.1 -21.2 0.5 -33 1.7 -42 2.4 -18.5 7.2 -32.8 12.2 -37 2.3 -1.9 1.9 -3.3 -3.5 -13 -6.4 -11.4 -12.9 -26.1 -17.1 -37.8 -2.9 -8.4 -3.5 -9.5 -8 -12.7 -4.7 -3.4 -7.9 -8.1 -9.3 -13.7 l-0.6 -2.8 -32.3 0 c-17.7 0 -33.9 -0.3 -36.1 -0.7 -5.5 -0.9 -9.5 -5.4 -13.5 -15.2 -3.5 -8.8 -8 -14.9 -9.9 -13.7 -2.1 1.3 -1.3 3.8 2.7 8.1 8.4 9.1 6 23.2 -4.8 28.7 -1.8 0.9 -3.5 1.9 -3.8 2.2 -1.1 1 6.6 11.5 13 17.8 6.4 6.3 15.4 12.6 24.4 17.2 5.1 2.5 5.8 2.6 23.5 2.6 18 0.1 18.3 0.1 16.1 1.9 -1.3 1.1 -4.5 2.2 -7.3 2.6 -3.4 0.5 -5.1 1.2 -5.5 2.4 -0.7 2.3 -4.1 4 -8.5 4.3 -2.8 0.2 -3.6 0.8 -3.8 2.6 -0.3 1.8 -1 2.2 -3.8 2.2 l-3.4 0 0 16.5 c0 16.2 0 16.5 2.1 16.5 1.2 0 6 1.5 10.8 3.4 20.3 8.2 37.2 11.1 46.6 8.2 2.7 -0.8 5.1 -1.3 5.4 -1 1.1 1.1 -3 6.1 -7.1 8.7 -3.4 2.1 -6.2 2.9 -11.6 3.4 -6.6 0.5 -7.2 0.8 -7.2 2.9 0 1.2 -0.6 2.4 -1.2 2.6 -0.7 0.3 1.6 1 5.2 1.7 5.8 1.2 16 5.4 16 6.6 0 0.3 -49.4 0.5 -109.7 0.5 l-109.8 -0.1 5.5 -2.9 c3.1 -1.5 8.4 -3.4 11.9 -4.1 3.4 -0.6 5.8 -1.5 5.3 -1.8 -0.5 -0.3 -1.1 -1.5 -1.3 -2.6 -0.4 -1.7 -1.5 -2.1 -7.3 -2.8 -8.2 -0.9 -14.2 -3.9 -16.9 -8.5 -2.3 -3.9 -1.8 -4.9 1.5 -3.1 1.4 0.8 5.8 1.3 11.8 1.3 10.9 -0.1 21 -2.5 36 -8.6 5.2 -2.1 10.4 -3.8 11.7 -3.8 l2.3 0 0 -16.5 0 -16.5 -3.4 0 c-2.8 0 -3.5 -0.4 -3.8 -2.2 -0.2 -1.9 -1 -2.4 -4.4 -2.6 -3 -0.2 -5 -1.2 -7.7 -3.7 -2.7 -2.5 -4.6 -3.5 -7 -3.5 -1.8 0 -4.4 -0.8 -5.7 -1.7 -2.4 -1.7 -1.9 -1.8 16.5 -2.3 l19 -0.5 7 -3.8 c8.4 -4.7 16.3 -10.5 21.8 -16.1 5 -5.1 12.7 -15.4 12.7 -17 0 -0.6 -1.6 -2 -3.6 -3.1 -10.6 -5.7 -11.5 -23.8 -1.4 -30.2 2.7 -1.7 2.9 -2.1 1.6 -3.2 -1.1 -0.9 -2 -1 -3.5 -0.2 -3.2 1.8 -73.3 1.5 -77.5 -0.3 -4.7 -2 -7.2 -7.6 -5.7 -12.7 0.6 -2.1 2.3 -4.7 3.8 -5.8 2.5 -2 3.8 -2.1 40.6 -2.1 31 0 38.3 -0.3 39.6 -1.4 6.7 -5.9 20 -9.1 27.4 -6.7 9.2 3.1 18 13.6 21.8 26.3 l2.1 6.7 27.6 0.3 c15.2 0.2 27.8 0.2 28 0.1 0.2 0 -0.8 -3.6 -2.2 -8 -5.6 -16.9 -7 -42 -4.1 -71.5 3.3 -33.3 11.3 -59.8 24.2 -80.8 l4 -6.6 -2.4 -3.4 c-6.5 -9.1 -7.9 -17.8 -4.3 -25.7 1.8 -4 16.4 -19.7 23.9 -25.7 l3.3 -2.7 -3.6 -15 c-6.7 -27.3 -9.6 -59 -9.6 -103.4 0 -32.6 1 -46.4 4.6 -64.3 8.7 -43.8 28.7 -75.2 55.9 -88.2 10.4 -4.9 15.8 -6.1 27.5 -6.1 18.1 0 37.1 6.4 59.3 20.2 9.7 6 22.2 15.6 43.9 33.7 33.7 27.9 45 38.9 59.9 58.1 6.2 8.1 6.3 8.1 9.8 7.4 5.6 -1.2 53.8 -0.6 72.6 1 11.1 0.9 19.8 1.1 25 0.5 37.9 -3.8 65.1 -3.6 85.6 0.7 2.4 0.6 3.5 -0.5 12.5 -12.2 20.1 -26.1 63.6 -66.1 93.4 -86 31.7 -21.1 56 -28.1 78.4 -22.3 19.2 4.9 38.8 21.1 52.2 43.2 8.8 14.7 16.9 41.1 19.9 65.8 3.9 30.4 2.7 84.2 -2.6 120.5 -1.7 11.9 -8.4 44.8 -9.5 46.6 -0.2 0.3 2.8 3.1 6.5 6.3 17.9 14.9 25 26.8 22.2 37.2 -0.6 2.1 -2.6 6.4 -4.5 9.3 l-3.4 5.5 3.9 5.7 c6 8.8 10.3 18.2 14.3 30.9 5.2 16.5 7.6 29.2 8.9 48 l1.2 16.5 146.7 0.5 c146.2 0.5 146.7 0.5 149.4 2.6 6.3 4.6 8.7 10.7 7.2 18.1 -1.1 5.4 -6.1 10.7 -11.3 12.2 -2.8 0.8 -46 1.1 -148.7 1.1 l-144.7 0 -0.6 3.8 c-1.9 10.9 -4.9 21.5 -8 27.9 -1.9 3.9 -3.5 8.3 -3.5 9.7 0 5.5 -4 22.9 -6.1 26.3 -1.2 1.9 -4 4.8 -6.3 6.4 -3.5 2.6 -4.5 4.3 -7.3 12.1 -4.6 12.6 -9.7 23.7 -16.1 34.7 l-5.4 9.4 2.1 2.6 c5.3 6.4 8.1 11.6 8.6 16 0.3 2.5 1.7 11.6 3.1 20.1 7.1 43.2 5.1 86.1 -6 129.4 -2 7.6 -3.6 14.4 -3.6 15 0 0.7 2.4 2.3 5.3 3.8 2.9 1.4 6.7 3.7 8.4 5.2 9.5 8 21.6 47.8 25.8 84.6 0.8 7.4 1.8 15.2 2.1 17.3 l0.6 3.7 76.3 0 c51.7 0 77.3 0.3 79.2 1.1 13.5 5.1 14.1 25 1 31 -4 1.8 -7.7 1.9 -79.8 1.9 l-75.6 0 -0.7 12 c-1.8 31.9 -8.7 69.4 -15.5 84.5 l-2.9 6.4 24.5 17.8 c13.6 9.8 25.3 18.2 26.2 18.6 1.1 0.6 4.2 -0.8 10.1 -4.3 19 -11.3 40.7 -17 64.9 -17 50.1 0 90.6 30.4 104.5 78.4 5.6 19.2 5.7 22.4 5.4 116.1 -0.3 85.9 -0.3 86 -2.5 92.5 -6.6 19.4 -22.1 34.8 -41.3 41.2 -5.9 2 -8.7 2.2 -31.1 2.4 -13.5 0 -25.1 0.4 -25.6 0.7 -0.6 0.4 -6 1.1 -12.2 1.7 -24.9 2.3 -49.4 -3.4 -69.3 -16.1 l-4.7 -3 -7.6 4.6 c-9.5 5.7 -19.6 9.8 -31.2 12.6 -10.5 2.6 -33.1 3 -42.8 0.9 -3.9 -0.8 -14.6 -1.3 -30.5 -1.4 -22.2 -0.1 -25.1 -0.3 -30.7 -2.3 -6.3 -2.1 -6.3 -2.1 -12.5 -0.2 -7.9 2.5 -21.6 3.4 -29.2 2 -7.4 -1.4 -15.6 -5.1 -22.2 -10.1 l-5.3 -4 -5 3.4 c-8.6 5.8 -15.3 7.9 -26.1 7.9 -10.9 0.1 -18.8 -1.9 -26.4 -6.5 l-4.9 -3 -5.6 1.6 c-3.1 0.8 -7.8 1.8 -10.6 2.2 -2.7 0.4 -7.2 1.6 -10 2.7 -7.8 3.1 -22.5 3.5 -31.1 0.9 -7.7 -2.4 -15.1 -6.6 -20.5 -11.9 l-3.6 -3.4 -6.4 1.1 c-3.5 0.7 -9 0.9 -12.1 0.5 -5.6 -0.6 -5.9 -0.5 -11 3.3 -20.8 15.6 -51.9 23.3 -81.5 20.2z m25.5 -52.5 c18.2 -3.6 32.8 -14.4 41 -30.3 6.5 -12.5 9.4 -24.8 9.5 -40.7 0.3 -29.2 -6.9 -43.7 -48.9 -99.5 -12.3 -16.4 -21 -28.9 -22.8 -32.9 -3.7 -8.2 -5.2 -19.1 -3.6 -26.4 1.6 -7.7 3.6 -9.2 12.1 -9.2 8.7 0 10.8 1.7 11.6 9.7 l0.6 5.6 3.5 -1.5 c2.7 -1.1 6.5 -1.4 15.2 -1.1 10 0.3 12.3 0.7 17.5 3.1 3.3 1.6 7.3 4 8.8 5.5 4.1 3.9 4.9 1.9 4.4 -11.3 -0.8 -19.2 -6.8 -33 -19.6 -44.8 -22.6 -20.8 -59.9 -20.9 -82.8 -0.2 -10.9 9.8 -17.4 21.7 -20.7 37.8 -2 9.5 -2 16.1 -0.1 26.9 4 23.2 16.1 46.4 39.8 76.3 29.2 36.8 33.7 45.4 33.7 64.7 0 12.7 -1.7 17.3 -6.9 18.8 -7.8 2.1 -16.7 0.3 -18.8 -4 -0.7 -1.4 -1.3 -4 -1.3 -5.9 0 -2.7 -0.3 -3.2 -1.7 -2.6 -5 1.9 -12.5 2.7 -19.6 2.2 -9.8 -0.8 -20.1 -5.2 -25.1 -10.8 l-3.4 -3.7 -0.4 2.9 c-0.3 1.7 -0.1 7.1 0.2 12.2 2.6 32.8 31.4 59.3 65.8 60.6 2.4 0 7.8 -0.6 12 -1.4z m386.2 -1.5 c8.6 -1.4 21.3 -7.6 27.2 -13.5 9.9 -9.7 15.5 -21.2 17.9 -36.5 0.6 -4.4 0.9 -27.6 0.6 -65.1 -0.4 -66.2 -0.8 -71.5 -7.3 -84.7 -4.8 -9.9 -13.5 -18.7 -23.1 -23.5 -11.9 -5.8 -18.3 -6.5 -38 -4.1 l-5.3 0.7 0 -17.6 0 -17.6 -3 1.1 c-1.8 0.6 -7.7 0.8 -13.8 0.6 -9.1 -0.3 -11.6 -0.8 -16.9 -3.2 -6.5 -3 -14.4 -10.3 -15.8 -14.6 -0.6 -1.7 -0.9 -2 -1.6 -0.9 -0.5 0.8 -0.9 60.1 -0.9 134.3 l0 132.9 2.2 3.4 c3.1 5.1 6.9 6.3 19.6 6.3 10 0 11.2 -0.2 14.6 -2.5 3.7 -2.5 8.4 -3.3 10.2 -1.7 2.6 2.4 18.3 6.9 24.4 7.1 1.4 0.1 5.4 -0.4 9 -0.9z m136.9 -3.1 c12.5 -4.4 14.1 -4.5 18.6 -1.5 3.4 2.4 4.7 2.6 13.7 2.6 11.5 0 15.7 -1.4 18.8 -6.5 2 -3.2 2 -4.8 2 -82.1 0 -47.9 -0.4 -81.3 -1 -85.1 -5.5 -34 -29.8 -54.9 -61.8 -53 -17.4 1 -33.3 8 -45.1 19.8 -5.9 5.8 -7.5 8.9 -4.8 8.9 2.5 0 12.3 5.2 15.5 8.3 5.6 5.3 7.2 9.5 7.2 18.7 0 10.2 1.1 10.4 9.4 1.5 6.5 -6.9 9.7 -8.5 17.4 -8.5 9.5 0 13.2 3.9 13.2 14.1 l0 4.9 -13.2 8.8 c-44.2 29.6 -60.4 51.9 -62.4 85.7 -1.6 26.5 10.2 50.7 29.6 60.9 13.7 7.2 27.4 8 42.9 2.5z m-249.7 -2.6 c1.4 -1.6 3.1 -3.8 3.7 -5 0.8 -1.6 1.1 -30.6 1.1 -103.9 0 -100.2 0 -101.7 -2 -104.9 -4 -6.5 -5.7 -7 -24 -7 -15.5 0 -16.7 0.1 -19.6 2.2 -6.8 4.8 -6.4 -1.1 -6.4 105.3 l0 96.2 2.9 -0.7 c5 -1.1 17.7 1.2 23.9 4.4 5.8 3 12.3 9.1 14.4 13.7 1.4 3.1 2.8 3 6 -0.3z m-74.7 -5.5 c0.3 -1.3 0.4 -40.1 0.3 -86.3 l-0.3 -84 -2.6 -8.2 c-7.9 -25.1 -29.6 -40.8 -53.9 -38.9 -4.7 0.4 -10.4 0.9 -12.7 1.2 l-4.3 0.6 0 -28.4 c0 -27.9 0 -28.6 -2.2 -31.8 -1.3 -1.8 -3.5 -4.2 -5 -5.3 l-2.8 -2.1 -15.7 3.8 c-18.2 4.3 -21.9 5.9 -24.5 10.6 -1.7 3.3 -1.8 9 -1.8 128.8 0 119 0.1 125.4 1.8 124.7 0.9 -0.4 4.7 -1.1 8.5 -1.7 13.6 -2.1 29.8 2.8 37 11.2 1.9 2.2 3.7 4 4 4 0.4 0 0.7 -36.4 0.7 -81 l0 -80.9 2.2 -1.2 c1.2 -0.7 5.2 -1.4 8.8 -1.6 11.6 -0.8 10.5 -9.7 10.8 82.1 l0.2 79.6 3.3 -1.7 c2.6 -1.5 5.7 -1.8 16.2 -1.8 12.2 0 13.4 0.2 19.2 2.9 3.4 1.5 7.2 3.9 8.4 5.2 2.8 3 3.7 3 4.4 0.2z m-676.5 -122.3 l0 -118.5 16 0 16 0 0 -12 0 -12 -46 0 -46 0 0 12 0 12 16 0 16 0 0 118.5 0 118.5 14 0 14 0 0 -118.5z m111 58 l0 -60.5 28 0 28 0 0 60.5 0 60.5 14 0 14 0 0 -130.5 0 -130.5 -14 0 -14 0 0 58 0 58 -28 0 -28 0 0 -58 0 -58 -14 0 -14 0 0 130.5 0 130.5 14 0 14 0 0 -60.5z m233 48 l0 -12.5 -30.5 0 -30.5 0 0 -48.5 0 -48.5 21.3 -0.2 21.2 -0.3 0.3 -12.2 0.3 -12.3 -21.6 0 -21.5 0 0 -45 0 -45 30.5 0 30.5 0 0 -12 0 -12 -44.5 0 -44.5 0 0 130.5 0 130.5 44.5 0 44.5 0 0 -12.5z m338 -279.7 c18.8 -12.8 22.3 -14.8 26.2 -14.8 3.7 0 3.8 0.1 3.8 3.4 0 2.3 -0.9 4.5 -2.6 6.6 -1.5 1.7 -2.5 3.2 -2.3 3.4 0.4 0.4 121.3 1 134 0.7 l5.7 -0.1 2 -4.7 c4.6 -10.9 9.9 -35.9 12.8 -60.3 2.1 -17.3 2.4 -48.5 0.7 -58.5 -0.7 -3.8 -1.7 -11.3 -2.4 -16.5 -2.2 -19.2 -13.1 -56.1 -19.6 -66.8 l-2 -3.3 -3.6 8.8 c-19.5 48.7 -31.3 69.4 -59.4 104.6 -25.7 32.2 -54.9 58.4 -85.7 77.1 -13.5 8.2 -38.8 20.6 -42 20.6 -2.3 0 -2.6 -0.4 -2.6 -3.3 0 -2.9 3.8 -7.5 34.8 -41.3 32.3 -35.5 42.4 -47.5 48.3 -58.1 2.2 -3.9 2.7 -4.3 6.4 -4.3 3.7 0 4.5 -0.6 11.5 -8.2 11.5 -12.5 16.9 -19.5 26.7 -34 17.5 -25.8 29.7 -49.6 39.4 -76.6 20.2 -56.1 25.7 -103.5 18 -155.7 -3 -20.3 -3.3 -21.5 -4.3 -20.9 -0.5 0.3 -3.5 3.8 -6.6 7.8 -3.1 3.9 -10.6 11.8 -16.6 17.4 -9.3 8.7 -11.5 10.2 -14.3 10.2 -4.1 0 -4.1 -0.2 -0.7 -20.3 l2.5 -15.1 6.7 -7 c13 -13.8 31.6 -42.4 38.9 -60.2 5.2 -12.5 8.7 -24.3 11.5 -39 l2.1 -11.4 3.3 0 c2.8 0 3.4 0.4 3.4 2.3 0.1 5.6 1.8 -1.6 2.9 -12.3 1.7 -16.3 1.6 -16 5 -16 2.7 0 3 -0.4 4 -4.7 7.7 -36.4 -0.5 -92.1 -17.4 -117.5 -2.4 -3.6 -9.1 -11.6 -14.8 -17.6 l-10.4 -11 -1.1 -10.2 c-1.7 -14.9 -2 -14 3.3 -14 2.5 0 6.2 0.7 8.2 1.5 2 0.8 3.8 1.3 4 1.1 0.6 -0.5 -12.9 -11.3 -18 -14.5 -4.7 -2.9 -4.8 -5.6 -0.7 -20.1 13.7 -48.6 18.8 -114.3 12.5 -160.7 -5.1 -37.4 -16.9 -61.1 -38.3 -77.3 -12.4 -9.3 -22 -11.2 -35.7 -6.9 -32.8 10.1 -88.6 55.7 -125.7 102.7 -17.7 22.3 -16.3 21.4 -26.7 18.8 -21 -5.4 -49.2 -6.5 -79 -3.2 -15.9 1.8 -19 1.9 -35 0.7 -45.4 -3.3 -59.5 -3.2 -76.1 0.4 -4.1 0.9 -9.6 1.9 -12.1 2.2 l-4.5 0.5 -1.7 -4.4 c-2.4 -6.2 -9.9 -17.2 -18.6 -27.3 -18.6 -21.6 -76.9 -69.4 -99.4 -81.5 -16.5 -8.9 -31.8 -12.6 -41.3 -10 -2.5 0.7 -7.9 3.4 -11.8 6 -22.3 14.8 -35.4 41.5 -41.6 85 -0.6 4.1 -1.3 17.4 -1.7 29.5 -1.1 40.2 3.8 93.5 10.3 111.8 2 5.7 6.4 26.4 6.4 30.4 0 2.4 -0.5 3.3 -2.2 3.9 -3.3 1 -14.9 8.8 -17.8 12 -2.2 2.4 -2.2 2.6 -0.5 2 9.2 -3.6 13.6 -4.6 19.2 -4.6 l6.3 0 0 5.1 c0 7.5 -3.7 14.4 -10.6 19.9 -18.7 14.9 -34.1 39.3 -40.4 64.2 -6.2 25 -8.9 50.8 -7.1 69.4 1.7 17.3 1.7 17.2 6 17.6 l3.6 0.3 0.2 5.5 c0.4 8.3 2.4 21.9 3.4 22.6 0.5 0.3 0.9 0 0.9 -0.5 0 -0.6 1.5 -1.1 3.3 -1.1 3 0 3.4 0.4 5 4.8 0.9 2.6 2.8 10.1 4.3 16.7 3.2 14.7 7.3 25.5 17.3 45 9.3 18.4 20.2 34.9 28.6 43.5 5.5 5.6 6.6 7.4 8.4 13.5 2.6 9 5.1 22.6 5.1 27.6 0 3.7 -0.2 3.9 -3 3.9 -3.3 0 -5.7 -2.1 -11.3 -9.7 -3.2 -4.4 -7 -8.2 -14.8 -14.8 -1.3 -1.1 -4.3 -4.2 -6.6 -7 l-4.2 -4.9 -1 2.6 c-6 15.7 -7.8 65.7 -3.6 96.8 7.9 58.1 28.1 111 59.4 155.5 3.8 5.5 9.6 13.8 12.9 18.5 3.3 4.7 8.8 11.2 12.3 14.4 5.6 5.3 6.8 6 10 5.7 3.5 -0.2 3.7 0 7.8 6.8 5 8.5 12.4 17.9 29 37.1 13.1 15.1 45.5 47.8 52.8 53.3 3.4 2.6 4.2 3.8 4.3 6.5 l0 3.2 -5.7 0 c-10.3 -0.1 -21 -5.9 -49 -26.6 -8.9 -6.5 -21.5 -15.9 -28.1 -20.7 -45.8 -33.7 -90.4 -94.2 -110.2 -149.5 -1.8 -5.2 -4.1 -10.3 -5.1 -11.5 -2.3 -2.8 -2.8 -2.2 -7 9.3 -7.9 21.8 -14.9 51.5 -14.9 63.6 0 4.1 -0.5 8.4 -1 9.4 -0.6 1 -1.5 6.2 -2 11.6 -3.1 29.6 9.2 106.4 18.1 113.7 2 1.6 5.5 1.8 47.3 1.7 24.8 0 55.4 -0.3 67.9 -0.7 l22.8 -0.6 -2.6 -2.6 c-1.6 -1.8 -2.5 -3.8 -2.5 -5.9 0 -3.2 0 -3.2 5.3 -3.2 4.8 0 6.5 0.7 16.3 6.5 14.8 8.9 16.9 9.4 32.9 8.4 7.2 -0.5 14.4 -1.1 16 -1.4 1.7 -0.3 43.1 -0.9 92 -1.4 98.2 -1 156.4 -0.2 173.5 2.5 5.8 0.8 14.3 2.2 19 2.9 4.7 0.7 9.3 1.3 10.2 1.4 0.9 0.1 5.8 -2.7 10.8 -6.1z m-676 -421.3 c0 -7.8 -0.2 -8.5 -2 -8.5 -1.8 0 -2 0.7 -2 8.5 0 7.8 0.2 8.5 2 8.5 1.8 0 2 -0.7 2 -8.5z m20 0 c0 -7.8 -0.2 -8.5 -2 -8.5 -1.8 0 -2 0.7 -2 8.5 0 7.8 0.2 8.5 2 8.5 1.8 0 2 -0.7 2 -8.5z m20 0 c0 -7.8 -0.2 -8.5 -2 -8.5 -1.8 0 -2 0.7 -2 8.5 0 7.8 0.2 8.5 2 8.5 1.8 0 2 -0.7 2 -8.5z m19 0 c0 -7.8 -0.2 -8.5 -2 -8.5 -1.8 0 -2 0.7 -2 8.5 0 7.8 0.2 8.5 2 8.5 1.8 0 2 -0.7 2 -8.5z m-28 -48 c0 -5.4 0 -5.5 -3 -5.5 -3 0 -3 0.1 -3 5.5 0 5.4 0 5.5 3 5.5 3 0 3 -0.1 3 -5.5z"/>
  <path d="M989.2 1294.4 l-2.2 -1.5 0 -60.4 c0 -60.2 0 -60.4 2.1 -61.5 2.7 -1.5 12 -2.4 15.2 -1.6 1.6 0.4 2.9 1.7 3.6 3.7 1.5 4.4 1.5 115.4 0 119.8 l-1.1 3.1 -7.7 0 c-5.3 0 -8.3 -0.5 -9.9 -1.6z"/>
  <path d="M1134.2 1296.2 c-2.8 -2.8 -3.5 -7.3 -3 -19 0.3 -8.3 0.8 -10.7 3.5 -16.4 1.7 -3.6 5.3 -8.9 8 -11.7 4.2 -4.3 5.5 -5.1 8.6 -5.1 l3.7 0 0 25 0 25 -2.4 1.5 c-1.3 0.9 -5.5 1.9 -9.4 2.2 -6.1 0.5 -7.2 0.3 -9 -1.5z"/>
  <path d="M650.5 816 c-2.7 -2.2 -10.6 -6.5 -17.5 -9.7 -43.9 -20.3 -63.3 -33.3 -91.5 -61.7 -16.8 -16.9 -26 -29 -33.4 -44.1 -5.1 -10.2 -10.1 -25.4 -10.1 -30.6 0 -2.8 0.2 -2.9 4.4 -2.9 3.9 0 5.3 0.7 10.8 5.1 3.5 2.8 11 9.4 16.8 14.8 17.9 16.5 25.2 22.5 38.1 31.1 13.2 8.7 32.2 18.4 42.9 21.9 36.7 11.9 78.6 9.6 115.6 -6.3 20.8 -8.9 37.9 -21 61.7 -43.2 21.1 -19.8 24.6 -22.5 30.1 -23.1 l4.6 -0.6 0 4.8 c0 10.6 -10.2 33.6 -22.8 51.5 -9.1 12.9 -32.6 36.3 -47.7 47.6 -15.5 11.6 -26.8 18.1 -61.2 35.3 -32.6 16.2 -32.9 16.3 -40.8 10.1z"/>
  <path d="M588.5 686.1 c-2.7 -0.4 -7.5 -1.9 -10.6 -3.3 -9.7 -4.4 -26.2 -15.6 -29.9 -20.3 -1.9 -2.4 -5.8 -7.1 -8.7 -10.4 -12.7 -14.9 -19.5 -30.9 -31.8 -75.1 -3.1 -11.4 -9 -24 -13.9 -29.7 -2.5 -2.8 -3.6 -5.1 -3.6 -7.2 l0 -3.1 7.8 0 c9.1 0 16.9 2 23.2 6.1 9.5 6 14.2 15 20.5 39.3 5.1 19.4 7.1 25 11.3 30.5 1.5 2 3.8 5.8 5.2 8.6 3.3 6.6 13.4 17.2 20.6 21.5 18.1 10.9 36.5 10.6 56.3 -1 11.3 -6.5 12.1 -8.1 1.6 -2.9 -12.2 6 -19.6 7.9 -29.5 7.8 -11.9 -0.2 -13.4 -0.8 -13.8 -4.9 -0.3 -3.5 -0.2 -3.5 7.1 -6.8 10.6 -4.8 18.7 -10.3 28.9 -20 l9 -8.6 -5.9 -1.6 c-3.2 -0.9 -7.6 -2.6 -9.8 -3.8 -8.3 -4.4 -30.1 -28.2 -34.6 -37.7 -9.4 -19.8 -4.4 -44.3 12.3 -60.1 12.3 -11.7 27.9 -18.2 48.7 -20.5 37.2 -4 69.9 8.8 84.1 33.1 5.8 10 7.5 16 7.5 27.5 0 9.3 -0.2 10.5 -3.2 16.5 -1.8 3.7 -6.4 10 -10.8 14.8 -4.1 4.5 -8.6 10 -10 12.2 -1.4 2.2 -3.5 4.5 -4.7 5.1 -1.3 0.7 -4.2 2.9 -6.6 5 -2.9 2.5 -7 4.7 -12.3 6.4 -4.3 1.5 -7.9 3 -7.9 3.5 0 1.2 12.5 12.7 19.4 17.8 7.3 5.3 18.6 11 23.9 11.8 3.5 0.6 3.7 0.8 3.7 4.4 0 3.7 -0.1 3.7 -4.6 4.4 -8.6 1.1 -24.4 0.6 -30.7 -1 -3.3 -0.8 -8.8 -2.9 -12.1 -4.5 -6 -3 -6 -3 -3.1 -0.5 4.2 3.6 13.9 8.3 21 10.1 23.2 5.9 51.3 -6.2 61.5 -26.5 1.8 -3.6 4.6 -8 6.2 -9.9 4.3 -4.9 6.1 -9.7 10.2 -27.5 4.6 -19.5 6.6 -25 11.8 -32.1 6.7 -9 16.9 -14.5 30.6 -16.5 11.1 -1.6 11.2 -1.6 11.2 2.8 0 3 -1 4.9 -5.1 9.7 -7.2 8.6 -9.8 14.9 -17.8 43 -12.1 42.4 -23.4 61 -47.9 79.5 -9 6.8 -13.7 9.3 -22.7 12.2 -10.5 3.4 -30.3 3.2 -52.5 -0.7 -21.8 -3.8 -35 -3.8 -55.1 -0.2 -15.3 2.8 -35.9 4.1 -44.4 2.8z m90.5 -187.2 c-6.5 -1.6 -18.7 -2.2 -26.6 -1.3 l-7.9 0.9 14 0.5 c7.7 0.3 16.3 0.6 19 0.7 4.8 0.1 4.8 0.1 1.5 -0.8z"/>
  <path d="M531.8 449.6 c-6.8 -2 -17.2 -7 -24.2 -11.7 -8 -5.4 -14.3 -11.5 -22.1 -21.5 -8.2 -10.5 -16.6 -18 -21.6 -19.5 l-4 -1.2 0.3 -11.1 0.3 -11.1 5 -0.7 c2.8 -0.4 12.1 -2.7 20.8 -5.2 8.7 -2.5 18.5 -5 21.7 -5.7 l6 -1.2 0 -3.8 0 -3.9 10.3 0 c22.1 0.1 32.2 3.5 43.9 14.7 10.7 10.4 19.9 25.5 23.4 38.5 1.8 6.8 2.8 21.4 1.6 25.3 -0.7 2.4 -2.7 4.1 -10.7 8.7 -14.5 8.4 -19.6 10 -34 10.4 -8.1 0.2 -13.5 -0.1 -16.7 -1z m10.9 -40.8 c3 -2.8 2.9 -4.2 -0.2 -5.6 -2.6 -1.2 -7.5 -0.1 -7.5 1.6 0 1.1 3.9 6.2 4.8 6.2 0.3 0 1.6 -1 2.9 -2.2z"/>
  <path d="M758 449.4 c-6.6 -1.8 -15.5 -6.7 -23.4 -13 l-5.9 -4.6 0.6 -10.7 c0.4 -8.1 1.2 -12.6 3.4 -19.3 5.8 -16.9 16.2 -32 27 -39.3 10.7 -7.2 17.3 -8.9 33.3 -9 l13.5 0 0.3 3.6 c0.3 3.5 0.5 3.7 4.5 4.3 2.3 0.4 11 2.4 19.2 4.6 8.3 2.2 18.4 4.8 22.5 5.8 l7.5 1.7 -0.1 7.3 c-0.2 8.5 -1.5 10.9 -11.5 21.2 -3.5 3.6 -9.9 11.2 -14.2 16.8 -4.2 5.6 -10.3 12.2 -13.5 14.7 -7.1 5.6 -23.7 14 -31.7 16 -7.5 1.9 -24.2 1.8 -31.5 -0.1z m28 -20 c0 -0.2 -3.5 -0.3 -7.7 -0.3 -6 0.2 -6.9 0.3 -3.8 0.8 3.9 0.6 11.5 0.3 11.5 -0.5z m0.1 -20.4 c2.7 -1.5 2.4 -4.5 -0.6 -5.8 -3.4 -1.6 -4 -1.5 -5.9 0.4 -2.2 2.2 -2 3.9 0.7 5.2 2.9 1.4 3.4 1.4 5.8 0.2z"/>
  <path d="M34.9 879.1 c-11.2 -3.5 -15.6 -17.3 -8.4 -26.6 5.2 -6.9 -0.6 -6.5 105.7 -6.5 108.3 0 100.4 -0.6 106.1 7.6 5.3 7.6 2.8 18.7 -5.3 23.7 l-3.5 2.2 -96 0.2 c-52.8 0.1 -97.2 -0.2 -98.6 -0.6z"/>
  <path d="M1167 849.5 c0 -21.7 -0.1 -22.5 -2 -22.5 -1.7 0 -1.9 -0.8 -2.2 -6.6 l-0.3 -6.6 -7.6 -2.8 c-41.1 -15 -62 -47.2 -50.7 -78.1 7.1 -19.4 27.7 -36.7 53.6 -45.3 l5.2 -1.8 0 -6.4 0 -6.4 18 0 18 0 0 -9.1 c0 -8.4 -0.2 -9.4 -2.6 -12.2 -2.3 -2.7 -2.5 -3.7 -2 -7.6 0.6 -4.3 0.4 -4.7 -3.4 -8.7 -3.9 -3.9 -4.3 -4.1 -9 -3.6 -4.4 0.4 -5.2 0.2 -8 -2.6 -4.2 -4.2 -4.2 -9.2 0.1 -13.4 2.7 -2.8 3.4 -3 7.8 -2.5 4.6 0.5 5 0.4 8.7 -3.4 3.5 -3.6 3.9 -4.5 3.9 -9.4 0 -4.2 0.5 -5.9 2.3 -7.7 2.1 -2.3 2.2 -3.1 2.2 -21.1 l0 -18.6 -53.7 -0.3 c-53.5 -0.3 -53.8 -0.3 -57.3 -2.5 -7.6 -4.7 -10.5 -16.4 -5.7 -23.3 1.2 -1.8 3.5 -4.3 5 -5.4 l2.8 -2.1 141.2 -0.3 c103.7 -0.2 141.9 0.1 144 0.9 3.7 1.6 8.4 7.1 9.8 11.7 2.3 7.9 -3.4 17.8 -11.6 20.1 -2.8 0.7 -28.8 1.1 -84.7 1.1 l-80.8 0 0 18.7 0 18.7 2.6 2.7 c1.8 1.9 2.6 3.8 2.6 6.4 0 2 -0.3 3.9 -0.6 4.3 -0.4 0.3 1.4 2.7 4 5.3 4.3 4.3 4.8 4.6 8.8 4.2 3.5 -0.4 4.7 -0.1 7.3 2.1 3.9 3.3 4.8 6.7 2.8 11 -2 4.2 -5.3 6 -10.2 5.3 -3.4 -0.4 -4.2 0 -8.4 4 -4 3.9 -4.6 4.9 -4 7.2 1 3.5 -0.5 8.8 -2.9 10.1 -1.8 1 -2 2.1 -2 10.5 l0 9.5 18.3 0.2 18.2 0.3 0.5 6.4 0.5 6.4 6.5 2.2 c25.5 8.6 45.6 26.6 52 46.4 1.9 5.9 2.2 8.7 1.8 17.4 -0.3 9.9 -0.6 10.9 -4.7 19.1 -8 16.2 -24 29.9 -45.1 38.3 l-10.5 4.2 -0.5 6.3 c-0.4 5.6 -0.8 6.3 -2.7 6.6 l-2.3 0.3 0 22.5 0 22.4 -36.5 0 -36.5 0 0 -22.5z m44.9 -50.5 c1.7 -2.8 3.1 -5.5 3.1 -6 0 -0.6 -2.5 -2.1 -5.5 -3.5 l-5.6 -2.4 -5.4 2.6 c-3 1.5 -5.5 3.3 -5.5 4.1 0 0.7 1.4 3.3 3 5.8 2.9 4.2 3.3 4.4 8 4.4 4.7 0 4.9 -0.1 7.9 -5z m-35.8 -1.2 c-0.7 -2 -1.8 -2.7 -4.8 -3 -2.1 -0.3 -3.9 -0.4 -4.1 -0.3 -0.2 0.1 1.8 1.7 4.4 3.4 2.6 1.7 4.9 2.9 5.1 2.7 0.2 -0.2 -0.1 -1.5 -0.6 -2.8z m60.8 -0.5 c5.7 -4 5.7 -4.8 -0.3 -3.6 -3 0.7 -4.1 1.5 -5.1 4.1 -0.8 1.7 -1.1 3.2 -0.7 3.2 0.4 0 3.1 -1.7 6.1 -3.7z m-103.2 -15.4 c0.8 -0.8 0.6 -2.3 -0.7 -5.5 -1.1 -2.4 -2.5 -7.1 -3.2 -10.3 l-1.2 -6 -6 0.6 c-3.4 0.3 -6.2 0.7 -6.4 0.8 -1 0.8 5.4 11 9.8 15.9 5.5 6 6 6.2 7.7 4.5z m155.3 -15 c1.6 -3.1 3 -5.9 3 -6.2 0 -0.3 -2.9 -0.7 -6.4 -0.9 l-6.4 -0.3 -2 8 c-1.1 4.4 -2.3 8.7 -2.6 9.6 -0.5 1 0.1 1.9 1.6 2.6 2 1 2.7 0.7 6 -3 2.1 -2.3 5.1 -6.7 6.8 -9.8z m-119.1 1.3 l-1.2 -11.1 -3 1.6 c-4.2 2.1 -16.7 1.5 -19.5 -1 -2 -1.8 -2 -1.8 -1.1 2.4 1.1 5 4.7 13.9 6.3 15.6 0.9 1.1 18.4 4.4 19.4 3.7 0.2 -0.1 -0.3 -5.1 -0.9 -11.2z m77.9 8.1 l9.4 -1.7 1.8 -4 c0.9 -2.3 2 -5.4 2.4 -7.1 0.4 -1.6 1 -3.9 1.3 -5 0.5 -1.8 0.4 -1.9 -1.2 -0.5 -1.3 1 -4.2 1.5 -9.6 1.5 -6.5 0 -8.2 -0.4 -10.8 -2.3 l-3.1 -2.3 -0.1 6.8 c0 3.7 -0.4 8.9 -0.8 11.6 -0.5 3.1 -0.4 4.7 0.3 4.7 0.5 0 5.2 -0.8 10.4 -1.7z m-43.8 -5.3 c2 0 6.3 1.1 9.4 2.5 3.1 1.4 6 2.5 6.5 2.5 1.2 0 3.1 -15.4 3.1 -26 0 -11.6 -1.9 -26 -3.4 -26 -0.6 0 -3.5 1.1 -6.4 2.5 -7.1 3.3 -11.6 3.2 -19.4 -0.5 l-6.3 -3 -0.7 2.7 c-2.9 10.8 -3.2 30.1 -0.7 45 l1.1 6.1 6.5 -2.9 c3.6 -1.6 8.2 -2.9 10.3 -2.9z m43.4 -33.5 c4.7 -0.7 9.4 -0.3 13 1.1 1.7 0.6 1.8 0.4 1.2 -2.2 -0.4 -1.6 -1.6 -4.7 -2.6 -7 l-1.8 -4.1 -9.6 -1.8 c-5.4 -0.9 -9.9 -1.5 -10.2 -1.3 -0.2 0.3 -0.1 5 0.2 10.5 l0.7 9.9 2.2 -2.2 c1.3 -1.3 4.1 -2.5 6.9 -2.9z m-90.4 0.5 c5 0 8.3 0.5 9.7 1.5 2.3 1.6 2 2.7 3.9 -13.8 0.6 -5.7 0.6 -5.8 -1.7 -5.3 -1.3 0.3 -5.8 1 -9.9 1.6 -4.1 0.6 -7.8 1.6 -8.2 2.3 -1 1.6 -4.6 10.9 -5.4 14.3 -0.7 2.7 -0.7 2.7 1.7 1.1 1.7 -1.2 4.5 -1.7 9.9 -1.7z m-27.6 -2.7 c0.4 -2.1 1.6 -6.7 2.8 -10.1 1.8 -5.6 1.8 -6.6 0.6 -7.8 -1.3 -1.3 -2.1 -0.7 -6.8 4.9 -2.9 3.5 -6.4 8.4 -7.7 10.8 l-2.3 4.4 5.7 0.6 c3.2 0.3 6.1 0.6 6.4 0.7 0.4 0.1 1 -1.5 1.3 -3.5z m161.6 1.4 c0 -1.4 -6.8 -11.7 -10.2 -15.4 -1.7 -1.8 -2.4 -2 -4.4 -1.1 -1.7 0.8 -2.3 1.6 -1.8 2.7 0.4 0.9 1.4 4.6 2.3 8.4 l1.6 6.7 6.2 0 c4.6 0 6.3 -0.4 6.3 -1.3z m-80.7 -26.5 l5.8 -2.7 -3.6 -5.7 c-3.6 -5.8 -3.7 -5.8 -8.5 -5.8 -4.4 0 -5.2 0.4 -7.3 3.3 -5.4 7.2 -5.4 7.3 1 10.6 3.2 1.7 6 3 6.3 3 0.3 0 3.1 -1.3 6.3 -2.7z m29.5 -5.5 c-4.2 -3.4 -8.8 -5.9 -8.8 -4.8 0 3.4 2.1 6 5.2 6.4 6.2 0.7 6.3 0.7 3.6 -1.6z m-63.7 -2.4 c1.3 -3.6 1.3 -3.6 -3.2 -1.1 -6 3.3 -6.5 4.4 -1.8 4 3.2 -0.3 4.2 -0.9 5 -2.9z"/>
  <path d="M1193.4 759 c-3.5 -1.4 -5.4 -5 -5.4 -10.3 0 -4 0.5 -5.3 2.9 -7.8 2.8 -2.7 3.4 -2.9 10.9 -2.9 9.3 0 12.7 1.9 13.8 7.5 1.8 9.9 -2.6 14.5 -13.6 14.4 -3.6 0 -7.5 -0.4 -8.6 -0.9z"/>
  <path d="M1074 852.3 c-8.9 -3.3 -13.8 -15.9 -9.5 -24.2 3.5 -6.9 12 -10.9 19.6 -9.2 5.6 1.3 8.8 3.8 11.7 9.2 4.5 8.4 1 18.6 -7.9 23.1 -3.2 1.7 -10.7 2.3 -13.9 1.1z"/>
  <path d="M54.9 815.1 c-7.3 -2.4 -11.9 -8.8 -11.9 -16.7 0.1 -18.9 25.6 -23.9 33.2 -6.6 2.5 5.6 2 10.8 -1.6 16.2 -1.4 2.2 -3.9 4.6 -5.6 5.5 -3.7 1.9 -10.7 2.7 -14.1 1.6z"/>
  <path d="M64 727.5 c0 -1 1.1 -1.5 3.5 -1.5 1.9 0 3.5 -0.4 3.5 -1 0 -0.6 4.5 -1 11.5 -1 l11.5 0 0 -22.9 0 -23 -2.2 -0.3 c-1.5 -0.2 -2.3 -1 -2.3 -2.3 0 -2 0.8 -2 95.3 -2.3 l95.2 -0.2 0 2.5 c0 1.8 -0.5 2.5 -2 2.5 -1.9 0 -2 0.7 -2 23 l0 23 11.5 0 c7 0 11.5 0.4 11.5 1 0 0.6 1.4 1 3 1 2 0 3 0.5 3 1.5 0 1.3 -6.7 1.5 -54.5 1.5 l-54.5 0 0 -14 0 -14 -11 0 -11 0 0 14 0 14 -55 0 c-48.2 0 -55 -0.2 -55 -1.5z m52.7 -32.2 c-0.2 -2.1 -0.4 -0.6 -0.4 3.2 0 3.9 0.2 5.5 0.4 3.8 0.2 -1.8 0.2 -5 0 -7z m15.3 2.6 c0 -3.3 -0.4 -5.9 -1 -5.9 -0.6 0 -1 2.9 -1 6.6 0 4.1 0.4 6.3 1 5.9 0.6 -0.3 1 -3.3 1 -6.6z m108 0.6 c0 -3.7 -0.4 -6.5 -1 -6.5 -1.1 0 -1.4 11.3 -0.3 12.3 1.2 1.3 1.3 0.7 1.3 -5.8z m14 0 c0 -3.7 -0.4 -6.5 -1 -6.5 -1.1 0 -1.4 11.3 -0.3 12.3 1.2 1.3 1.3 0.7 1.3 -5.8z m-108 -0.5 c0 -3.3 -0.4 -6 -1 -6 -0.6 0 -1 2.7 -1 6 0 3.3 0.4 6 1 6 0.6 0 1 -2.7 1 -6z m80 0 c0 -3.3 -0.4 -6 -1 -6 -0.6 0 -1 2.7 -1 6 0 3.3 0.4 6 1 6 0.6 0 1 -2.7 1 -6z"/>
  <path d="M47.5 419.1 c-11.5 -2.8 -16.7 -16.4 -10.1 -26 5.7 -8.1 -1.4 -7.6 102.1 -7.9 50.6 -0.2 94.3 0 97.2 0.3 12.9 1.5 20.1 14.3 14 24.9 -2.7 4.8 -6.2 7.5 -11.3 8.6 -4.6 1.1 -187.5 1.1 -191.9 0.1z"/>
  <path d="M1154.7 356.5 c-10.8 -3.8 -15 -15.3 -9.2 -25.2 6.3 -10.6 20.8 -11.2 28.8 -1.2 7.3 9.3 2.5 23.6 -9.1 26.9 -4.7 1.3 -5.8 1.2 -10.5 -0.5z"/>
  <path d="M238.9 231 c-10.6 -3.2 -15.2 -15.7 -9.4 -25.6 6.9 -11.8 24.8 -10.7 30.6 2 2.3 5.2 2.4 9 0 14.1 -3.8 8.2 -12.5 12.2 -21.2 9.5z"/>
 </g>
 <g fill="#fefefe">
  <path d="M671 1523.8 c-4.6 -2.5 -5 -4.6 -5 -30.5 0 -14.3 0.4 -25.3 1 -26.9 1.5 -3.9 3.9 -5.3 8.8 -5.4 4.6 0 7.7 2.2 8.7 6.2 0.3 1.3 0.5 13.7 0.3 27.5 -0.3 23.9 -0.4 25.4 -2.4 27.3 -2.6 2.6 -8.1 3.5 -11.4 1.8z"/>
  <path d="M729.5 1524.3 c-1 -0.3 -2.9 -1.2 -4.2 -2 l-2.3 -1.5 0 -27.8 0 -27.9 2.6 -2 c2.9 -2.3 9.2 -2.8 12.4 -1.1 3.4 1.8 4 6.5 4 30.7 0 25.7 -0.7 29.5 -5.5 31.3 -2.8 1 -3.7 1.1 -7 0.3z"/>
  <path d="M606.5 1352.3 c-13.4 -1.9 -27.8 -8.8 -37.7 -18.1 -13.3 -12.6 -19.5 -25.5 -21 -44.1 -0.9 -11.6 0 -21 2.4 -23.8 0.9 -1.2 1.3 -0.9 2.4 1.5 2.3 5.5 8.1 10.8 15.6 14.2 6.3 2.9 8.4 3.4 15.3 3.4 7.1 0.1 8.9 -0.3 14.3 -3 l6.2 -3.1 0 5.1 c0 6.8 1.7 9.8 6.4 11.4 6.1 2 11 0.2 13 -4.8 2.1 -5.2 2.1 -16.1 0 -23.1 -3.3 -11.1 -10.2 -21.8 -32.1 -49.4 -29 -36.6 -41.3 -64.4 -41.3 -93.2 0 -21.7 7.9 -40.8 22.3 -53.8 11.6 -10.6 26.1 -15.6 44.6 -15.6 18.4 0 32.6 5.1 44.2 15.8 13.4 12.4 18.9 25.5 19.7 47.4 0.4 11.2 0.2 14.1 -1.2 16.6 -0.9 1.8 -2 3.4 -2.5 3.8 -0.6 0.3 -2.8 -1.4 -5.1 -3.8 -2.3 -2.6 -6.6 -5.6 -10.3 -7.3 -5.5 -2.6 -7.3 -2.9 -16.3 -2.9 -9.5 0 -10.3 0.2 -15.1 3.1 l-5.1 3.2 -0.4 -7.5 c-0.4 -5.8 -1 -7.9 -2.6 -9.5 -2.6 -2.6 -9.4 -2.8 -12.2 -0.3 -4.5 4.1 -4.3 16.7 0.6 27.7 1.8 3.9 10.5 16.5 22.8 32.8 32.8 43.5 42.1 59 46.8 77.6 1.9 7.5 2.2 11.4 2.2 24.9 -0.1 13.8 -0.5 17.4 -2.7 25.7 -3.5 13.3 -9.6 24.8 -17.3 32.4 -13 13 -35 19.6 -55.9 16.7z"/>
  <path d="M994.5 1349.5 c-6.1 -1.3 -14.3 -4.2 -15.9 -5.6 -0.4 -0.4 -2.4 0.4 -4.3 1.7 -3.4 2.2 -4.5 2.4 -17.5 2.4 -15.9 0 -19.4 -1 -22.6 -6.3 l-2.2 -3.4 0 -135.7 c0 -145.8 -0.2 -139.8 4.8 -142.5 1.6 -0.8 2 -0.3 3 3.5 1.7 6.3 8.6 13.4 16.5 16.9 10.2 4.7 20.5 4.7 32 0 1.6 -0.7 1.7 0.6 1.7 18 0 17.4 0.1 18.7 1.8 18 3.3 -1.4 22.6 -1.8 28.5 -0.5 15 3.1 29.3 14.3 36.1 28.2 6.5 13.3 6.9 18.2 7.3 87.7 0.3 39.5 0 63.8 -0.6 68.1 -3.4 21.5 -13.7 36.8 -30.6 45.1 -11.8 5.7 -25 7.3 -38 4.4z m10.4 -59.6 c1.5 -4.4 1.5 -109.4 0 -113.8 -1.4 -3.9 -4.4 -4.8 -10.1 -3 l-4.3 1.4 -0.3 57.5 -0.2 57.5 2.1 1.8 c1.4 1.1 3.8 1.7 6.9 1.7 4.5 0 4.9 -0.2 5.9 -3.1z"/>
  <path d="M1119.8 1349.5 c-9.8 -2 -19.7 -7.5 -26.7 -15.1 -12.3 -13.1 -17.7 -30.7 -16.8 -53.9 1.6 -36.4 16.9 -58.2 62.5 -88.7 14.1 -9.5 14.4 -9.9 11.8 -16.3 -1.1 -2.6 -2.4 -3.6 -5.3 -4.5 -6.5 -2 -11.3 0 -17.4 7 -5.6 6.5 -10 8.5 -15.8 7.4 -3.5 -0.7 -3.6 -0.9 -1.6 -4.4 2.1 -3.6 1.9 -11.4 -0.4 -15.8 -3.6 -6.9 -10.9 -12.3 -20.8 -15.2 -2.4 -0.7 -4.3 -1.9 -4.3 -2.6 0 -2.1 7.8 -11.7 13 -16.1 7 -5.8 14.1 -9.7 23.5 -12.8 10.9 -3.7 30 -4.6 40.8 -2 24 5.7 40.3 24.6 44.7 51.8 0.6 3.8 1 38.2 1 88.1 0 80.3 0 81.9 -2 85.1 -3.3 5.4 -7 6.5 -21.8 6.5 -11.8 0 -13.2 -0.2 -16.3 -2.3 l-3.4 -2.3 -5.8 2.4 c-12.6 5.1 -25.7 6.3 -38.9 3.7z m30 -57.1 c2.2 -1.4 2.2 -1.7 2.2 -23.5 0 -21.3 -0.1 -21.9 -1.9 -20.9 -7 3.7 -15.1 18.6 -15.9 29 -0.9 13.5 1.8 18.7 9.1 17.5 2.3 -0.4 5.2 -1.3 6.5 -2.1z"/>
  <path d="M893.7 1345.8 c-1.1 -4.1 -8.6 -11.7 -14.6 -14.7 -7.3 -3.7 -10 -4.3 -19.3 -4.2 l-7.8 0 0 -99 c0 -109.6 -0.4 -103.4 6.4 -108.2 3 -2.1 4 -2.2 22.6 -2.2 21.7 0 22.9 0.3 27 7 2 3.2 2 4.7 2 107.9 0 113.2 0.3 107.2 -5.3 112.4 -1.4 1.3 -4.3 2.6 -6.5 2.9 -3.5 0.5 -4 0.3 -4.5 -1.9z"/>
  <path d="M822 1340.7 c-2.1 -2.4 -6.1 -5.3 -10 -7.1 -5.9 -2.8 -7.4 -3.1 -16.5 -3.1 -9.2 0 -10.4 0.2 -14.8 2.8 -2.7 1.6 -5.1 3.5 -5.4 4.4 -0.5 1.2 -0.7 1.2 -1.4 0.1 -0.5 -0.7 -0.9 -36.9 -0.9 -80.5 0 -48.4 -0.4 -80.2 -1 -81.7 -1.2 -3.3 -4.8 -4.2 -10.2 -2.5 l-4.3 1.4 -0.5 82 c-0.5 78.1 -0.6 82.2 -2.4 85 l-1.9 2.8 -2.4 -5.1 c-5.6 -11.8 -22.1 -19.6 -36.7 -17.2 -5.5 0.9 -10.9 3.1 -12.1 5 -0.3 0.5 -1 1 -1.6 1 -0.5 0 -0.9 -49.5 -0.9 -130.1 0 -142.4 -0.3 -134.5 5.7 -138.4 3.2 -2.2 33.6 -9.7 38.7 -9.6 4.5 0 8 2.2 11.4 7.1 2.2 3.2 2.2 3.9 2.2 31.5 l0 28.3 3.8 -0.9 c5.9 -1.4 22.2 -1 28.5 0.6 18.5 4.8 32.6 18.6 38.6 37.8 l2.6 8.2 0.3 88.2 0.3 88.2 -2.8 2.9 -2.8 3 -3.5 -4.1z"/>
  <path d="M120 1216.5 l0 -118.5 -16 0 -16 0 0 -15 0 -15 49 0 49 0 0 15 0 15 -16 0 -16 0 0 118.5 0 118.5 -17 0 -17 0 0 -118.5z"/>
  <path d="M231 1201.5 l0 -133.5 17 0 17 0 0 58 0 58 25 0 25 0 0 -58 0 -58 17 0 17 0 0 133.5 0 133.5 -17 0 -17 0 0 -60.5 0 -60.5 -25 0 -25 0 0 60.5 0 60.5 -17 0 -17 0 0 -133.5z"/>
  <path d="M403 1201.5 l0 -133.5 47.5 0 47.5 0 0 15 0 15 -30.5 0 -30.5 0 0 42 0 42 21.5 0 21.6 0 -0.3 15.3 -0.3 15.2 -21.2 0.3 -21.3 0.2 0 45.5 0 45.5 30.5 0 30.5 0 0 15.5 0 15.5 -47.5 0 -47.5 0 0 -133.5z"/>
  <path d="M371.3 1034.2 c-10.1 -17.2 -21.3 -41.6 -21.3 -46.4 0 -4.8 1.6 -6.8 5.6 -6.8 3.4 0 5.2 1.6 27.7 24.3 13.3 13.3 26.3 25.8 29 27.6 4 2.9 4.7 3.9 4.7 6.7 l0 3.3 -20.3 0 -20.4 -0.1 -5 -8.6z"/>
  <path d="M891.7 1042.3 c-43.3 -0.3 -43.7 -0.3 -42.7 -2.3 0.6 -1.1 1.7 -2 2.5 -2 0.8 0 2 -0.8 2.7 -1.8 1.2 -1.8 2.5 -1.8 22.3 -1 11.6 0.5 23 0.6 25.5 0.3 4.3 -0.6 5.8 -1.9 32.5 -28.6 26.7 -26.5 28.2 -27.9 31.8 -27.9 3 0 3.7 0.4 3.7 2 0 1.1 0.5 2 1 2 1.1 0 1.4 7.3 0.3 8.4 -0.4 0.4 -1.4 3.1 -2.4 6 -0.9 2.9 -5.9 12.9 -11.2 22.2 -5.3 9.3 -10 18.1 -10.6 19.5 -0.7 2 -1.9 2.8 -4.8 3.2 -2.1 0.4 -4.5 0.6 -5.3 0.4 -0.8 -0.1 -21.2 -0.3 -45.3 -0.4z"/>
  <path d="M570 1040 c0 -1.9 -4.1 -7.2 -8.9 -11.5 -5.8 -5.2 -68.7 -87.8 -83.9 -110.2 -8.1 -12 -15.3 -26.2 -15 -29.6 0.3 -3 0.6 -3.2 4.3 -3.5 2.6 -0.2 7.8 0.9 14.3 3 5.6 1.9 9.6 2.9 9 2.3 -0.7 -0.6 -5.3 -4.4 -10.1 -8.5 -12.7 -10.5 -36.2 -34.3 -48.4 -49 -26.8 -32 -50.9 -77.2 -53 -99.7 l-0.6 -6.3 4.2 0 c4.4 0 15.5 5 25.9 11.6 2.9 1.9 5.5 3.4 5.7 3.4 1 0 -9.8 -12.9 -11.1 -13.4 -0.8 -0.3 -1.4 -1.2 -1.4 -2.1 0 -0.8 -2.8 -6.8 -6.1 -13.3 -8 -15.3 -9.9 -20.9 -9.9 -29.4 l0 -6.8 3.3 0 c2.6 0 3.8 0.8 6.1 4 3.5 4.7 24 24.9 56.9 55.9 22.9 21.6 56.4 55.6 73.6 74.6 12 13.2 21.8 26.7 34.2 47.1 6.4 10.6 15 23.9 19 29.6 12.2 17.2 32.6 36.8 55.7 53.6 8.6 6.1 23.2 14.2 25.8 14.2 6.5 0 25.2 -11.6 42.9 -26.5 24 -20.2 38.5 -37.8 58 -70 18.3 -30.4 21.5 -34.2 70.1 -83.5 42 -42.7 74.8 -75 87.8 -86.3 8.1 -7.1 9.2 -7.7 13.2 -7.7 l4.4 0 0 4.5 c0 6 -11 33.8 -15.1 38 -1.6 1.7 -4.4 5.5 -6.2 8.5 -1.8 3 -4.1 6.8 -5.2 8.3 -1.7 2.7 -1.3 2.5 5.6 -1.9 9.3 -6.1 21.4 -11.4 25.8 -11.4 l3.4 0 -0.6 7.6 c-3.1 35.9 -52.2 106.5 -101.2 145.4 -16.9 13.4 -17 13.6 -10.1 10.5 7.8 -3.4 16.2 -5.8 21.1 -5.9 l4 -0.1 0 4 c0 3.7 -3.9 9.4 -53.3 77.1 l-53.3 73.2 -4.2 0.7 c-2.3 0.4 -43 0.9 -90.4 1 -79.9 0.2 -86.3 0.1 -86.3 -1.5z"/>
  <path d="M456 1028.5 c0 -3.3 0.2 -3.5 3.5 -3.5 3.1 0 3.5 0.3 3.5 2.5 0 1.6 -0.6 2.5 -1.6 2.5 -0.8 0 -1.2 0.5 -0.9 1 0.4 0.6 -0.5 1 -1.9 1 -2.3 0 -2.6 -0.4 -2.6 -3.5z"/>
  <path d="M303.5 915.8 c0.4 -2.4 1.1 -5.1 1.6 -6 0.5 -0.9 0.9 -5 0.9 -9.1 0 -16 11.3 -58.6 20.2 -76.1 l3.1 -6.1 1.5 3.5 c0.7 1.9 2.1 4.3 2.9 5.2 1.3 1.4 1.3 2.5 0.3 7.5 -1.8 8.5 -1.4 17.9 1.4 34.7 3.5 20.4 3.6 19.6 -2.8 24.4 -2.9 2.2 -9.3 8.4 -14.2 13.6 -4.8 5.3 -9.4 9.6 -10.1 9.6 -0.7 0 -1.3 0.7 -1.3 1.5 0 0.9 -0.9 1.5 -2.1 1.5 -1.9 0 -2 -0.4 -1.4 -4.2z"/>
  <path d="M1013 918 c0 -0.5 -0.9 -1 -1.9 -1 -1.2 0 -5.3 -3.7 -10.3 -9.1 -4.6 -5 -10.9 -10.9 -14.2 -13.1 l-5.8 -4 0.8 -7.7 c0.5 -4.2 0.8 -16.4 0.6 -27.2 -0.3 -19.2 -0.2 -19.8 2.3 -25.4 1.4 -3.2 2.5 -6.8 2.5 -8.2 0 -3.3 1.5 -2.2 5.6 4.4 8 12.3 18.9 48.2 21.4 69.8 0.6 5.5 1.5 12.2 2 14.8 1.4 6.8 1.3 7.7 -1 7.7 -1.1 0 -2 -0.4 -2 -1z"/>
  <path d="M1172 817.5 c0 -1.3 4.2 -1.5 31.5 -1.5 27.3 0 31.5 0.2 31.5 1.5 0 1.3 -4.2 1.5 -31.5 1.5 -27.3 0 -31.5 -0.2 -31.5 -1.5z"/>
  <path d="M1174.5 804.3 c-2.7 -1.4 -8 -5 -11.7 -8 -6.6 -5.3 -8.6 -7.9 -5 -6.9 0.9 0.2 5.9 1 11.1 1.7 9 1.2 9.4 1.3 10.3 4.1 0.6 1.6 2.1 4.9 3.3 7.4 l2.2 4.4 -2.6 0 c-1.4 -0.1 -4.8 -1.3 -7.6 -2.7z"/>
  <path d="M1193.3 802.8 c-3.2 -4.7 -5.3 -9.2 -5.3 -11.1 0 -0.7 3.5 -3 7.8 -5.1 l7.8 -3.8 7.5 3.2 c4.1 1.7 7.8 3.5 8.3 4 1.1 1.1 -0.7 5.7 -4.7 12.3 l-2.9 4.7 -7.8 0 -7.9 0 -2.8 -4.2z"/>
  <path d="M1223 806.2 c0 -0.4 0.4 -1.2 1 -1.8 0.5 -0.5 2.1 -3.6 3.4 -6.9 l2.4 -6 11.4 -2.1 c6.2 -1.2 11.5 -2 11.8 -1.7 1.1 1.1 -13.5 13.4 -19.2 16.3 -5.9 2.9 -10.8 3.9 -10.8 2.2z"/>
  <path d="M1147.7 798.9 c-7.9 -4 -8.7 -5.2 -5.1 -7.5 1.7 -1.1 2.5 -0.6 7.7 5.2 3.2 3.5 5.7 6.4 5.5 6.4 -0.2 -0.1 -3.8 -1.9 -8.1 -4.1z"/>
  <path d="M1257.6 795.7 c3.7 -3.9 7.1 -7.3 7.5 -7.5 0.4 -0.2 2.1 0.6 3.9 1.6 l3.1 2 -2.8 2 c-3.2 2.2 -9 5.2 -14.7 7.6 -3.8 1.6 -3.8 1.6 3 -5.7z"/>
  <path d="M1124.6 782 c-8.3 -8.8 -12.1 -16.2 -14 -27 -0.6 -3.4 -0.6 -3.4 0.9 -1.3 3.4 4.8 12.8 5 17.8 0.5 l2.7 -2.6 0 4.5 c0 5.2 1.8 12.1 5.2 20.5 l2.5 6.1 -3.1 2.5 c-1.7 1.3 -3.6 2.7 -4.2 3.1 -0.7 0.4 -3.9 -2.3 -7.8 -6.3z"/>
  <path d="M1273.9 783.1 l-4.6 -2.9 2.9 -8.5 c1.5 -4.7 3.1 -11.2 3.4 -14.5 l0.7 -6 2.2 2.6 c2 2.4 3.1 2.7 8.3 2.7 4.6 0 6.5 -0.5 8.2 -2 l2.3 -2 -0.6 4.2 c-0.8 6.3 -5.6 15.9 -11.6 23.1 -2.8 3.4 -5.5 6.2 -5.9 6.2 -0.4 0 -2.8 -1.3 -5.3 -2.9z"/>
  <path d="M1162 781.9 c-6.8 -1.1 -13 -2.5 -13.6 -3.2 -0.6 -0.6 -2.4 -4.3 -3.9 -8.2 -3.7 -9.1 -4.6 -24.7 -2.1 -34.3 1.7 -6.8 5.5 -16.2 6.5 -16.2 0.3 0 6.4 -0.9 13.6 -2 7.1 -1 13 -1.8 13.1 -1.7 0.1 0.1 -0.5 3.6 -1.4 7.7 -2.8 13.6 -2 46.6 1.4 58.3 0.3 0.9 0.2 1.6 -0.3 1.6 -0.4 -0.1 -6.4 -1 -13.3 -2z m1.1 -26.4 c3.6 -1.9 5.2 -5.5 3.9 -8.9 -1.4 -3.7 -4.9 -5.6 -10.3 -5.6 -4 0 -5.3 0.5 -7.8 2.9 -3.3 3.3 -3.6 5.6 -1.3 8.9 3 4.3 10.1 5.5 15.5 2.7z"/>
  <path d="M1232.4 780.1 c3.7 -17.9 3.6 -46.1 -0.1 -60.9 -0.5 -2 -0.3 -2.3 1.3 -1.9 1.1 0.3 7.3 1.5 13.9 2.7 8.1 1.4 12.4 2.7 13.3 3.8 2.1 2.8 5.2 14.2 5.9 21.7 0.6 7.9 -1.4 20.4 -4.6 27.8 -1.7 3.9 -2.4 4.5 -5.8 5 -2.1 0.4 -8.4 1.5 -14.1 2.6 l-10.3 1.9 0.5 -2.7z m27.3 -26.3 c4.8 -4.5 1.8 -11.6 -5.6 -13.3 -4 -0.9 -10.3 1.5 -12 4.7 -4.8 8.5 10.1 15.7 17.6 8.6z"/>
  <path d="M1184.7 781.3 c-1.6 -2.6 -3.1 -17.9 -3.2 -30.8 0 -14.3 1.8 -31 3.6 -32 0.4 -0.3 4.8 1.3 9.8 3.6 l9 4.2 9.3 -4.1 c5.1 -2.3 9.4 -3.9 9.6 -3.8 1.3 1.3 3.2 20.4 3.2 31.6 0 11.1 -2 30.4 -3.2 31.5 -0.2 0.1 -4.5 -1.5 -9.6 -3.8 l-9.3 -4 -8.6 3.9 c-4.8 2.2 -9 4 -9.4 4.2 -0.4 0.2 -0.9 -0.1 -1.2 -0.5z m23.4 -25.8 c3.6 -1.9 5.2 -5.5 3.9 -8.9 -1.4 -3.7 -4.9 -5.6 -10.3 -5.6 -4 0 -5.3 0.5 -7.8 2.9 -3.3 3.3 -3.6 5.6 -1.3 8.9 3 4.3 10.1 5.5 15.5 2.7z"/>
  <path d="M1130.2 745.4 c-2.5 -4.7 -11.1 -5.6 -16.6 -1.9 l-3.6 2.5 0.6 -2.8 c1 -4.9 3.7 -11.6 6.2 -15.7 3.3 -5.3 10.1 -13.2 13 -15.1 2.1 -1.4 2.5 -1.3 6.1 1.8 l3.9 3.2 -1.8 3.6 c-2.8 5.7 -5 13.4 -5.8 20.2 -0.7 5.6 -0.9 6.1 -2 4.2z"/>
  <path d="M1274.7 737.9 c-0.9 -4.7 -2.5 -10.7 -3.6 -13.2 l-2 -4.7 3.7 -2.3 c2 -1.3 4.3 -2.7 5 -3.1 4 -2.4 19.2 20.8 19.2 29.1 0 1.1 -0.7 0.9 -2.6 -0.6 -4.1 -3.3 -11.7 -2.9 -15.3 0.7 l-2.7 2.7 -1.7 -8.6z"/>
  <path d="M1194.8 713 l-7.7 -4 2 -4.7 c1.1 -2.7 3.2 -6.3 4.6 -8.1 l2.5 -3.3 8 0.3 8 0.3 3.3 5.5 c1.9 3 3.7 6.7 4.1 8.2 0.6 2.6 0.3 2.9 -6.1 5.8 -9.8 4.4 -10.1 4.4 -18.7 0z"/>
  <path d="M1241.1 710.6 l-11.4 -2.2 -1.2 -3.5 c-0.7 -1.9 -2.2 -5.4 -3.4 -7.7 l-2.1 -4.2 2.6 0 c4.4 0 14.5 6.1 21.9 13.2 3.8 3.7 6.6 6.7 6 6.6 -0.5 0 -6.1 -1 -12.4 -2.2z"/>
  <path d="M1260.6 707 c-2.1 -2.8 -5.3 -6.2 -7 -7.6 -3 -2.4 -3 -2.4 -0.4 -1.5 3.9 1.4 14 6.7 16.3 8.5 2 1.6 2 1.6 -0.5 3.6 -1.4 1.1 -3 2 -3.5 2 -0.6 0 -2.8 -2.3 -4.9 -5z"/>
  <path d="M1156 709.9 c0 -1.3 9.2 -8.9 15.2 -12.5 6.5 -4 15.4 -6.1 12.9 -3.1 -0.7 0.9 -2.4 4.2 -3.6 7.4 l-2.4 5.8 -11 1.6 c-6.1 0.8 -11.1 1.2 -11.1 0.8z"/>
  <path d="M1141.7 707.8 l-2.8 -2.1 3.3 -2 c1.8 -1.1 5.8 -3.1 8.8 -4.4 l5.5 -2.5 -6 6.4 c-3.2 3.4 -5.9 6.4 -6 6.5 0 0.1 -1.3 -0.8 -2.8 -1.9z"/>
  <path d="M113 698.5 l0 -9.5 3.5 0 3.5 0 0 9.5 0 9.5 -3.5 0 -3.5 0 0 -9.5z"/>
  <path d="M127 698.6 l0 -9.6 4 0 4.1 0 -0.3 9.3 -0.3 9.2 -3.7 0.3 -3.8 0.3 0 -9.5z"/>
  <path d="M141.7 707.4 c-0.4 -0.4 -0.7 -4.7 -0.7 -9.6 l0 -8.8 4 0 4.1 0 -0.3 9.3 -0.3 9.2 -3 0.3 c-1.7 0.2 -3.4 0 -3.8 -0.4z"/>
  <path d="M221.7 707.4 c-0.4 -0.4 -0.7 -4.7 -0.7 -9.6 l0 -8.8 4 0 4.1 0 -0.3 9.3 -0.3 9.2 -3 0.3 c-1.7 0.2 -3.4 0 -3.8 -0.4z"/>
  <path d="M235.7 707.3 c-0.4 -0.3 -0.7 -4.6 -0.7 -9.5 l0 -8.8 4 0 4 0 0 9.5 0 9.5 -3.3 0 c-1.9 0 -3.7 -0.3 -4 -0.7z"/>
  <path d="M249.7 707.3 c-0.4 -0.3 -0.7 -4.6 -0.7 -9.5 l0 -8.8 4 0 4 0 0 9.5 0 9.5 -3.3 0 c-1.9 0 -3.7 -0.3 -4 -0.7z"/>
  <path d="M473.8 692.1 c-2.7 -1.1 -7.8 -4.1 -11.5 -6.8 -3.8 -2.8 -7.3 -5.2 -7.8 -5.6 -0.7 -0.3 -0.9 1.8 -0.7 6.4 l0.4 6.9 -4.1 0 c-8 0 -18.6 -7.2 -41.1 -28.1 -18.2 -16.8 -20.2 -18.3 -27.3 -20.4 -3.4 -1 -6.1 -2.4 -6.4 -3.3 -0.3 -1 -3.4 -4.6 -6.9 -8.2 -8.4 -8.7 -19.2 -25.2 -28.5 -43.5 -10.1 -19.8 -14.1 -30.2 -17.7 -46.5 -1.7 -7.4 -3.7 -15 -4.5 -16.9 l-1.4 -3.4 -2.2 5.8 c-1.2 3.2 -2.5 6.3 -2.9 6.9 -1 1.6 -5.1 -23.1 -5.1 -31.1 -0.1 -3.9 -0.5 -7.5 -1.1 -7.8 -0.6 -0.4 -1 1.9 -1 6.2 l-0.1 6.8 -1.9 -3.5 c-5.3 -10.2 -7.9 -33.7 -6.2 -57.1 3.9 -52.7 18.5 -86.3 47.7 -110 3.6 -2.9 6.5 -5.8 6.5 -6.6 0 -0.7 1.6 -3.1 3.6 -5.3 3.4 -3.8 3.9 -4 9.4 -4 4.4 0 5.9 0.4 6.4 1.6 1.5 4 0.5 6.7 -5 12.7 -8.2 9.1 -19.8 26.9 -27.9 43 -3.9 7.8 -7.7 15.7 -8.3 17.6 l-1.2 3.3 4.4 -4 c6 -5.6 11.9 -8.3 18.9 -9 l6 -0.5 -0.6 7.1 c-0.3 4.3 -2.1 11.3 -4.6 18.4 -5.3 15.2 -6.9 21.7 -8.2 33.9 -1 10 -0.5 25.3 1.1 30.8 0.9 3 0.9 2.8 3.5 -6.9 4.1 -15.8 11.1 -28.7 20.2 -37 8.6 -7.9 15.1 -10.6 28.3 -12 22.8 -2.4 47.4 4.6 62.4 17.7 6.8 6 33.4 22.6 41 25.7 5.4 2.2 6.7 2 2.6 -0.5 -12.6 -7.6 -20.9 -14 -28.9 -22.4 -14.3 -15 -21.8 -29.6 -22.8 -44.7 l-0.6 -7.8 6.7 0 c4.8 0 6.6 0.4 6.6 1.3 0 0.8 1.8 1.9 3.9 2.6 5 1.5 13.4 9.1 21.6 19.5 11.2 14.3 21.1 22.4 35.6 29 10.2 4.6 16.7 6 25.8 5.3 9.8 -0.7 17.4 -3.4 29.6 -10.5 11.2 -6.4 12 -7.8 11 -17.2 -2 -17.7 -11.2 -35.6 -25.3 -49.3 -11.2 -10.7 -22 -14.6 -40.9 -14.7 -8.3 0 -9.7 1.6 -4.3 4.9 l3.1 1.8 -8.8 1.6 c-4.8 0.9 -16 3.7 -24.8 6.2 -8.8 2.5 -18.2 4.9 -21 5.3 -4 0.6 -5.1 1.1 -5.3 2.8 -0.2 1.7 -1.4 2.3 -6.6 3.2 -3.5 0.7 -9.1 1.2 -12.5 1.2 l-6.1 0 0 -5.9 c0 -10.2 9 -24.6 23 -36.6 7.4 -6.3 24.6 -14.9 36.4 -18.1 14.1 -3.8 47.4 -4.3 60.6 -0.8 17.6 4.5 29.5 13.8 40.2 31.6 6 9.8 7.9 16.1 8.5 27.4 0.8 14.9 -1.1 28.7 -4.7 34.4 -3.8 6 -4.4 8.9 -7.6 33.4 -2.5 19.5 -2.9 21.4 -6 26.5 -1.8 3.1 -3.1 5.7 -2.9 5.9 0.2 0.2 2.7 -1.3 5.6 -3.3 14.9 -10.2 37.5 -21.2 50.8 -24.6 9.1 -2.3 29.3 -2.6 39.2 -0.5 15.1 3.2 36.7 13.6 43.7 21 2.9 3.1 12.2 9.2 12.2 8 0 -0.2 -1.9 -4.1 -4.1 -8.7 -3.9 -7.6 -4.2 -9 -5 -19.7 -1.2 -16 -3.4 -27.9 -6.5 -34.7 -2.6 -5.8 -2.6 -5.9 -2.1 -26.8 0.4 -17 0.9 -22.5 2.5 -28.7 4.9 -18.1 14 -29.3 30.2 -37.1 12.1 -5.8 18.9 -7.5 33.1 -8.3 23.6 -1.3 43.1 4.6 74.4 22.6 14.3 8.3 25.5 24.2 26.3 37.7 l0.4 6.6 -6.8 -0.7 c-14.8 -1.4 -20.5 -2.8 -21.4 -5.2 -0.7 -1.7 -2.4 -2.5 -8.7 -3.9 -4.3 -0.9 -14.2 -3.4 -22 -5.5 -7.8 -2.1 -17.8 -4.4 -22.3 -5.1 l-8.1 -1.1 3.5 -2.6 c2 -1.3 3.3 -2.9 2.9 -3.5 -0.3 -0.6 -4.6 -0.8 -11.2 -0.4 -12.6 0.6 -20.4 3.1 -29.9 9.5 -14.5 9.9 -28.4 35.4 -29.9 55.3 l-0.6 7.7 5.9 4.6 c12.7 10.1 23.9 14.6 36.4 14.6 9.1 0 16.8 -2.2 28.5 -8 13.5 -6.8 20.1 -12.2 29.2 -24.2 4.3 -5.6 11.2 -13.7 15.3 -18 l7.4 -7.8 5.7 0 c8.7 0 8.9 0.1 8.9 8.2 0 18.5 -9.4 36.6 -28.1 54.2 -7 6.6 -7.7 7.5 -3.9 5.1 12.2 -7.6 23.8 -15.7 26.4 -18.4 1.7 -1.7 3.7 -3.1 4.7 -3.1 0.9 0 2 -0.7 2.3 -1.6 0.7 -1.9 12.5 -7.4 22.6 -10.6 6.3 -1.9 9.6 -2.3 21 -2.3 16.6 0 21.8 1.3 31.5 7.5 13.4 8.8 23.3 25.1 29.6 49 l1.2 4.5 0.8 -3.5 c1.6 -7.2 2.1 -23.7 1 -32.7 -1.5 -12.6 -7.7 -31.6 -15.8 -48.9 -0.8 -1.7 -1.3 -4.8 -1.1 -7 0.3 -3.7 0.5 -3.9 4 -4.2 3.1 -0.3 5.1 0.6 13 5.9 5.1 3.4 11.2 8 13.6 10.3 l4.3 4.1 -2.4 -6.5 c-6.7 -17.7 -16.8 -35.7 -30.5 -54 -8.4 -11.2 -8.7 -11.6 -8.7 -17 l0 -5.5 4.4 -0.3 c3.5 -0.3 4.9 0.2 7 2.1 4.5 4.1 7.4 5.7 9.6 5.1 2.4 -0.6 3.5 1.5 3.5 6.8 0 2 2.6 5.4 10.5 13.8 13.1 13.8 18.4 21.7 23.4 34.5 8 20.5 11.6 42.9 11.6 72 -0.1 22.8 -1.6 34.8 -5.8 46 l-2.2 6 -0.5 -6.5 c-0.6 -7.5 -1.5 -5.6 -2.5 5.5 -0.9 8.9 -4.2 31.5 -4.8 32.1 -0.2 0.2 -1.5 -3.7 -2.9 -8.8 l-2.4 -9.2 -2.2 11.6 c-2.8 14.9 -6.3 26.7 -11.5 39.2 -7.3 17.7 -25.8 46.4 -38.8 60.1 -4.2 4.4 -6.9 8.2 -7.4 10.3 -0.6 2.9 -3.5 4.7 -3.5 2.2 0 -1.7 -3.4 -1.1 -9 1.7 -3.4 1.7 -9.9 7 -17.9 14.8 -20.4 19.6 -34.8 29.5 -43 29.5 l-4.4 0 0.6 -7 0.6 -7.1 -6.3 5 c-8.3 6.6 -15.8 10.1 -21.8 10.1 l-4.8 0 0 -3.9 c0 -4.1 3.7 -13.7 10.7 -27.6 2.3 -4.4 4.8 -9.7 5.7 -11.8 l1.6 -3.9 -3.4 3 c-4 3.5 -18.7 12.5 -24.8 15.1 -7.1 3.2 -19.4 5.2 -35.3 5.8 -12.4 0.5 -15.7 0.3 -18.7 -1 -2.1 -0.9 -3.8 -2 -3.8 -2.6 0 -0.5 2.8 -3.8 6.3 -7.3 17.4 -17.5 25.5 -33.2 35.8 -69.3 8 -28.1 10.6 -34.4 17.8 -43 2.8 -3.3 5.1 -6.3 5.1 -6.6 0 -1.1 -11.7 1 -17.2 3.1 -8.1 3 -13.9 7.2 -18.6 13.5 -5.2 7.2 -7.3 12.6 -11.8 32.2 -3.9 16.9 -6.6 23.8 -11.5 29.1 l-3 3.3 -9.7 -1.1 c-15.8 -1.9 -20.3 -3 -28.6 -7.3 -8.8 -4.5 -15.8 -10.9 -20 -18 l-2.8 -4.9 2.1 -1.5 c1.2 -0.8 2.7 -2.6 3.5 -4.2 0.8 -1.5 5.1 -6.7 9.6 -11.6 4.7 -5.3 9.4 -11.7 11.3 -15.5 2.8 -5.6 3.2 -7.3 3.1 -14 -0.3 -13.3 -6.3 -25.8 -18.1 -37.1 -28.6 -27.6 -86.7 -27.3 -116.1 0.5 -5.7 5.4 -8.1 8.7 -11.2 15 -9.1 18.6 -6.5 36.2 7.6 51.7 9.1 9.9 14.5 16.7 13.5 17.1 -0.5 0.2 -3.3 3.9 -6.2 8.3 -9.1 13.5 -21.6 20 -40.7 21.2 -5.1 0.3 -9.5 1 -9.8 1.4 -0.8 1.3 -3.4 1.1 -3.4 -0.2 0 -0.6 -1.3 -2.8 -3 -4.9 -4.3 -5.5 -6.3 -10.8 -11.5 -30.6 -6.3 -24.3 -11 -33.3 -20.5 -39.3 -5.6 -3.6 -13.9 -6.1 -20.3 -6.1 l-4.9 0 3.7 4.3 c5 5.7 10.8 18.2 14 29.7 12.2 44 19.1 60.4 31.5 74.8 2.8 3.1 7 8.3 9.5 11.4 l4.6 5.8 -3.3 2.1 c-3.1 1.9 -4.3 2 -19.3 1.5 -28.7 -0.9 -44.1 -6.2 -59.8 -20.6 -5.8 -5.3 -5.9 -5.3 -4.4 -1.9 0.8 1.9 4.7 10.1 8.7 18.2 6.4 13 7.3 15.6 7.8 21.7 l0.5 7 -3.9 0 c-2.2 -0.1 -6 -0.9 -8.6 -1.9z"/>
  <path d="M1172 683.5 c0 -1.3 4.2 -1.5 31.5 -1.5 27.3 0 31.5 0.2 31.5 1.5 0 1.3 -4.2 1.5 -31.5 1.5 -27.3 0 -31.5 -0.2 -31.5 -1.5z"/>
  <path d="M150 618.5 l0 -11.5 5 0 5 0 0 11.5 0 11.5 -5 0 -5 0 0 -11.5z"/>
  <path d="M170 618.5 l0 -11.5 5 0 5 0 0 11.5 0 11.5 -5 0 -5 0 0 -11.5z"/>
  <path d="M190 618.5 l0 -11.5 5 0 5 0 0 11.5 0 11.5 -5 0 -5 0 0 -11.5z"/>
  <path d="M209 618.5 l0 -11.5 5 0 5 0 0 11.5 0 11.5 -5 0 -5 0 0 -11.5z"/>
  <path d="M1202.4 623.5 c-0.9 -2.3 1 -4 2.5 -2.2 0.9 1.1 0.8 1.7 -0.4 2.7 -1.2 1 -1.6 0.9 -2.1 -0.5z"/>
  <path d="M179 570.5 l0 -8.5 6 0 6 0 0 8.5 0 8.5 -6 0 -6 0 0 -8.5z"/>
  <path d="M536.7 433 c-2.1 -0.6 -5.2 -1.7 -7 -2.6 -3.2 -1.6 -11.7 -9.2 -11.7 -10.5 0 -0.4 3.7 0.9 8.3 2.9 12.4 5.4 17.8 5.5 30.2 0.3 5.4 -2.3 10 -3.9 10.3 -3.6 0.8 0.8 -1.9 6.2 -4.1 8.4 -4.9 4.5 -17.9 7.1 -26 5.1z"/>
  <path d="M770.9 433 c-2.6 -0.4 -5.6 -1.3 -6.8 -2 -2.1 -1.1 -8.1 -8.6 -8.1 -10 0 -0.4 3.7 0.5 8.3 2.1 11 3.8 17.8 3.8 29.9 -0.1 5.1 -1.6 9.4 -2.8 9.6 -2.5 0.7 0.7 -2.7 5 -6 7.6 -1.8 1.4 -4.9 3.1 -6.8 3.7 -5 1.6 -14.8 2.2 -20.1 1.2z"/>
  <path d="M534.1 411.4 c-1.3 -1.7 -2.1 -4.1 -2.1 -6.6 0 -3.2 0.4 -4 2.6 -4.8 5.3 -2.1 13.2 -0.4 13.6 2.9 0.6 6.8 -2.6 11.1 -8.3 11.1 -2.9 0 -4.2 -0.6 -5.8 -2.6z"/>
  <path d="M776.8 411.4 c-3.1 -1.6 -3.2 -2.3 -1.8 -7.5 1.3 -4.7 4.7 -6.3 10 -4.9 2.2 0.6 4.6 1.7 5.5 2.6 2.1 2.2 1.9 7 -0.5 9.4 -2.4 2.4 -9.2 2.6 -13.2 0.4z"/>
  <path d="M373 280.2 c0 -6.7 1.9 -14.6 5.6 -23.4 4.4 -10.4 4.2 -14.3 -1 -29.8 -8.9 -26.8 -10.9 -44.5 -11 -97.5 l-0.1 -35.1 3.5 -4.9 c5 -6.9 10.4 -9.5 19.6 -9.5 12.7 0 22.1 5 38.1 20.4 10.8 10.2 16.1 17.8 24.5 34.8 6.6 13.3 7.7 17.3 5.9 21.6 -1 2.5 -0.8 3.5 1.6 8.3 2.5 4.8 2.8 6.5 2.8 14.6 l0 9.1 9.9 1.8 9.8 1.8 -0.6 6.5 c-0.4 4.8 -1 6.7 -2.3 7.4 -6 3.1 -37.3 38.9 -37.3 42.6 0 0.6 -0.6 1.1 -1.3 1.1 -0.7 0 -4.4 3.2 -8.2 7 -3.8 3.9 -7.3 7 -7.8 7 -2.5 0 -17.9 7 -30.8 14.1 -9.5 5.1 -15.7 7.9 -17.8 7.9 l-3.1 0 0 -5.8z"/>
  <path d="M926.9 278 c-5.8 -3.2 -16.6 -8.5 -23.8 -11.7 -13.1 -5.6 -13.4 -5.8 -17.7 -11.9 -2.4 -3.4 -4.4 -6.6 -4.4 -7.1 0 -2.6 -11.7 -17.1 -23.2 -28.9 l-12.8 -13.1 0 -4.9 0 -4.9 10.6 -3.3 10.6 -3.3 -0.6 -3.1 c-1.7 -8.7 -1.8 -19.3 -0.2 -23.2 2 -4.8 2 -5.6 0.1 -5.6 -1.1 0 -1.5 -1.1 -1.5 -3.7 0 -4.4 9.2 -24.1 16.4 -35.2 9.6 -14.8 26 -29.1 39.2 -34 4.1 -1.6 7.8 -2.1 15.1 -2.1 l9.6 0 4.2 4.3 c6.8 6.7 7.9 12.2 7.1 33.2 -2.2 54.8 -10.4 106.1 -19.1 118.9 l-2.2 3.3 6.8 15.4 c5.8 13.1 6.8 16.3 6.9 21.2 l0 5.7 -5.2 0 c-4.6 0 -6.7 -0.8 -15.9 -6z"/>
 </g>
 <g fill="#d1d2d3">
  <path d="M820.3 1490 c0 -3.6 0.2 -5 0.4 -3.2 0.2 1.7 0.2 4.7 0 6.5 -0.2 1.7 -0.4 0.3 -0.4 -3.3z"/>
  <path d="M814.5 1048.3 c-1.6 -0.2 -8.4 -1.3 -15 -2.3 -24.1 -3.9 -34.7 -4.2 -136.5 -4.1 -93.2 0.1 -118.1 0.6 -151.9 3.1 -17.6 1.3 -20.1 0.7 -35.5 -8.5 -6.1 -3.6 -12.1 -6.5 -13.4 -6.5 -2.3 0 -2.2 0.2 1.9 4.8 2.4 2.6 4.8 5 5.3 5.4 0.6 0.4 0.8 0.9 0.6 1.1 -0.3 0.3 -14.4 0.7 -31.5 1.1 -23.4 0.4 -30.2 0.3 -27.7 -0.6 1.7 -0.6 3.2 -1.4 3.2 -1.8 0 -0.4 -2.1 -2.2 -4.7 -4.1 -2.7 -1.8 -15.8 -14.4 -29.2 -27.8 -22.8 -23 -24.4 -24.4 -25.7 -22.6 -0.8 1.1 -1.2 2.5 -0.9 3.2 0.3 0.7 0.8 2 1.1 2.8 0.4 1.1 0 1.5 -1.8 1.5 -1.7 0 -3 -1.2 -4.9 -4.3 -3.5 -5.8 -9.8 -22.4 -15 -39.7 l-4.4 -14.5 -0.9 14.5 c-2 33.1 3.6 72.7 11.9 84 1.5 2 2.5 4.7 2.5 6.7 l0 3.3 -9.4 0 c-11.9 0 -12.7 -0.6 -16.7 -12.4 -8.7 -26.1 -15.6 -82.9 -12.9 -108 1 -9.8 2 -14.9 2 -10.3 0 0.9 0.3 1.7 0.7 1.7 0.3 0 5.6 -5.1 11.7 -11.3 6.1 -6.3 12.5 -12.5 14.3 -13.8 l3.2 -2.4 -2.5 -14.5 c-3.4 -19.9 -3.6 -39 -0.3 -44 1.4 -2.2 3.1 0.4 7 11.3 19.7 55.2 64.3 115.7 110.1 149.4 6.6 4.8 19.2 14.2 28.1 20.7 24.9 18.5 38.9 26.5 46 26.6 2.7 0 2.5 -0.3 -3 -4.9 -23.5 -19.7 -69.4 -70.6 -80.4 -89.2 -2.9 -4.9 -4.5 -6.7 -5.2 -6 -1.4 1.4 -2.7 1.4 -2.7 0 0 -0.6 -1.6 -3.7 -3.6 -6.9 -4.5 -7.3 -14.7 -32.5 -17.4 -42.9 -1.4 -5.6 -2 -11.2 -2 -19 l0 -11.1 3.5 0 c2.5 0 11.4 4 31.7 14.3 15.4 7.8 28.9 14.6 29.9 15.2 2.2 1.2 2.5 4.5 0.5 4.5 -0.8 0 -2.7 -0.5 -4.2 -1 -5.5 -2.1 -5.8 -0.6 -1.3 7.7 2.3 4.3 6.6 11.4 9.4 15.8 12.3 19 79 107 85.6 113 4.8 4.3 8.9 9.6 8.9 11.5 0 1.4 7.9 1.5 83.8 1.5 46 -0.1 85.4 -0.5 87.4 -0.9 3.5 -0.8 6.4 -4.6 57 -74 29.3 -40.2 53.3 -73.5 53.3 -74.1 0 -0.5 -0.7 -0.8 -1.5 -0.6 -5.4 1.4 -6 1.3 -6 -0.5 0.1 -3.4 12 -10.2 36.8 -21 7 -3 15.1 -6.9 18.1 -8.5 3 -1.6 6.7 -2.9 8.2 -2.9 2.5 0 2.8 0.4 3.5 4.7 1.9 13 -3.9 33.9 -16.5 59.2 -6.9 13.6 -8.5 16.1 -10.4 16.1 -1.6 0 -2.9 1.3 -5 5 -5.8 10.2 -16 22.5 -47 56.5 -17.6 19.3 -32.9 35.9 -33.9 37.1 -2.4 2.7 27.5 -12.3 39.2 -19.6 10 -6.3 19.7 -13.3 33.5 -24.4 29.6 -23.7 68.7 -71.2 86.8 -105.6 4.5 -8.5 21.9 -47.8 23.9 -54 0.3 -0.8 0.9 8 1.3 19.6 0.6 18.9 0.3 30.6 -1.1 35.6 -0.4 1.2 1.2 2.8 5.3 5.6 3.2 2.2 9.5 8.1 14.1 13.1 5.7 6.2 9 9.1 10.6 9.1 2.9 0 3.1 2.1 3 28 -0.1 34.2 -6.6 76.4 -14.6 95.1 l-1.9 4.6 -8.2 0.7 c-4.5 0.3 -9.7 0.6 -11.6 0.6 -3.1 0 -3.3 -0.2 -2.8 -2.7 0.3 -1.6 1.7 -6.1 3.2 -10.1 3.6 -9.9 8 -29.6 10.5 -47.2 2.2 -14.9 2.8 -38.2 1.2 -44.9 -0.7 -3.2 -1.1 -2.3 -5.1 11.5 -4.8 16.3 -10 30.6 -13.3 36.6 -1.7 3.1 -2.7 3.8 -5.1 3.8 -2.6 0 -2.8 -0.2 -1.6 -1.7 1.1 -1.3 1.1 -1.7 0.2 -2 -0.7 -0.3 -1.3 -1.3 -1.3 -2.4 0 -1 -0.3 -1.9 -0.8 -1.9 -0.4 0 -13.1 12.4 -28.2 27.5 -22.8 22.8 -28.2 27.7 -31.5 28.6 -2.7 0.7 -11.3 0.8 -27.5 0.3 -12.9 -0.5 -24.1 -0.8 -24.7 -0.7 -0.8 0 -0.3 -1.2 1 -2.9 4.5 -6 4.9 -6.8 4 -6.8 -1 0 -10.1 5.8 -23.3 14.8 -9.6 6.5 -11.1 6.9 -21.5 5.5z"/>
  <path d="M647.4 955 c-14.7 -7.4 -38.2 -25.9 -54.9 -43.2 -11.9 -12.2 -20.4 -24 -36.4 -50.2 -12.4 -20.4 -22.2 -33.9 -34.2 -47.1 -17.2 -19 -50.7 -53 -73.6 -74.6 -34.5 -32.5 -49.7 -47.4 -55.4 -54.2 -4.8 -5.7 -4.9 -5.7 -4.9 -2.8 0 7.5 -8.2 -1.9 -9.4 -10.9 l-0.6 -4.5 2 2.4 c1.1 1.3 2 1.9 2 1.3 0 -2.5 -3.3 -18.4 -5.1 -24.5 -1.1 -3.8 -1.8 -7.1 -1.6 -7.4 1 -1 15.4 4 18.7 6.5 1.9 1.5 10 8.7 18 16.1 8 7.4 17.9 16 22 19 7.7 5.7 15.5 9.9 16.6 8.8 0.3 -0.3 0.2 -3.8 -0.4 -7.9 -0.5 -4 -0.8 -7.6 -0.5 -8 0.6 -1.2 8 2.8 15.6 8.4 6.2 4.6 16.3 9.5 17.4 8.4 1.4 -1.4 -1.7 -10.3 -8.7 -24.6 -9.4 -19.1 -13.9 -32 -11.1 -32 0.6 0 5.2 3.9 10.3 8.6 5 4.8 11.5 10.1 14.3 11.9 11.5 7.4 26.6 11.3 46.2 12.2 11.2 0.5 12.4 0.4 15.8 -1.6 l3.6 -2.1 11 7.1 c6 3.8 14 8.4 17.7 10.1 6.3 2.9 7.4 3.1 19.2 3.1 9.5 0 16.3 -0.7 28.5 -2.9 21.9 -4 38.3 -3.9 61.5 0.1 34.4 5.9 50.6 3.3 68.8 -11.4 6.8 -5.5 10.9 -8.1 9.7 -6.2 -0.4 0.7 0.8 1.8 3.2 2.8 3.1 1.3 6 1.4 16.2 0.9 22 -1.2 29.9 -3.5 46.7 -13.9 8.3 -5.2 11.9 -8.5 19.7 -18.2 8.4 -10.3 4.9 3.5 -7.3 29.5 -8.3 17.5 -11 23.7 -11 25.1 0 1.6 3.4 0.9 8.9 -1.6 5.7 -2.7 10 -5.8 19.5 -14.3 3.3 -2.9 6.3 -4.9 6.7 -4.5 0.4 0.4 -0.2 5 -1.3 10.1 -1.1 5.1 -1.7 9.6 -1.3 10 1 1 11.1 -4.7 20 -11.2 4.4 -3.3 13.4 -11.2 20 -17.6 13.3 -12.9 18 -16.1 27.1 -18.4 7.8 -2 7.4 -2.1 6.9 1.2 -0.2 1.5 -1.2 7.4 -2 13.2 -0.9 5.8 -1.9 11.4 -2.2 12.5 -0.6 2 -0.5 2 1.6 0.1 1.6 -1.4 2.1 -1.5 2.1 -0.5 -0.1 3.1 -3 13.7 -5.2 19.1 -1.8 4.5 -2.8 5.8 -4.5 5.8 -2 0 -2 -0.2 -1 -3.5 2.3 -7.6 -0.6 -6.1 -17.5 9.1 -12.1 10.9 -97.1 96 -116.2 116.2 -12.4 13.2 -23 27.4 -34.5 46.7 -13.5 22.5 -25.2 38.5 -37.1 50.8 -19.1 19.8 -45.1 40 -57.6 44.6 -8.3 3.2 -12.9 2.8 -22 -1.9z m40.9 -152.1 c15.5 -7.8 32.9 -16.9 38.7 -20.2 16.8 -9.8 33.1 -22.7 49 -38.6 15.7 -15.8 24.9 -27.8 32.9 -43.1 5.1 -9.7 11.5 -27 10.9 -29.5 -0.6 -2.8 -6.8 1.7 -22.1 16.1 -30.3 28.4 -45.9 39.6 -69 49.4 -25.4 10.8 -52.9 15.2 -82.1 13 -22.9 -1.7 -37.4 -5.5 -57.1 -15 -21.8 -10.6 -36.4 -21.2 -66 -48.2 -13.5 -12.4 -19.8 -17.2 -21.3 -16.7 -1.6 0.6 3.6 16.8 8.9 27.4 7.4 15.1 16.6 27.2 33.4 44.1 28.2 28.4 47.6 41.4 91.5 61.7 6.9 3.2 14.8 7.5 17.5 9.7 2.8 2.1 5.3 3.9 5.8 3.9 0.4 0.1 13.4 -6.3 29 -14z"/>
  <path d="M597.5 654 c-16.7 -2.3 -34.8 -14.7 -42.4 -29.1 -3.6 -6.8 -2.9 -7.5 8.1 -8.2 19.1 -1.2 31.6 -7.7 40.7 -21.2 2.9 -4.4 5.9 -8.1 6.6 -8.3 0.7 -0.2 3.7 1.9 6.6 4.6 6.5 5.9 11.5 8.6 20.3 10.8 3.6 0.9 6.6 2 6.6 2.4 0 1.6 -13.8 15.6 -20.8 21.2 -4.1 3.2 -11.9 8 -17.3 10.7 -5.5 2.7 -9.6 5.2 -9 5.5 0.6 0.4 3.9 0.9 7.3 1.3 10.8 1 23.8 -3.6 43.1 -15 8.5 -5.1 9.3 -4.7 5.6 3 -2.4 5 -5.6 7.9 -14.8 13.3 -13 7.5 -27.5 10.8 -40.6 9z"/>
  <path d="M699 652.4 c-8.3 -2.2 -17.4 -7 -22.3 -11.8 -4.7 -4.5 -10.1 -12.9 -9.5 -14.6 0.2 -0.6 3.2 0.7 6.8 3 20.4 12.7 32.3 15.8 50.4 13.4 5.6 -0.8 5.9 -1.9 0.9 -2.8 -5.3 -0.8 -16.6 -6.5 -24.3 -12.1 -7.6 -5.6 -23.3 -21.2 -22.5 -22.5 0.3 -0.5 4.8 -2.3 9.9 -4 6.7 -2.2 10.7 -4.2 13.8 -6.9 4.2 -3.7 8.7 -6.6 9.2 -5.9 0.2 0.2 2 2.9 4.1 6.1 5.3 8.2 19 17.7 28.8 20.1 4.6 1.1 25.9 3.6 26.7 3.1 0.4 -0.2 -1.1 3 -3.3 7.3 -10 19 -28.7 29.3 -53.1 29.1 -5.6 0 -12.6 -0.7 -15.6 -1.5z"/>
  <path d="M623.2 583.1 c-4.2 -0.8 -4.2 -2.4 0 -3.3 5.5 -1.3 16.9 1.1 12.2 2.5 -3.7 1.1 -8.9 1.5 -12.2 0.8z"/>
  <path d="M688.5 582.7 c-4.1 -1.8 -2 -2.9 7.4 -3.7 4.2 -0.4 8.5 -1.1 9.6 -1.6 1.9 -0.7 1.8 -0.6 -0.2 2.7 -2.1 3.2 -2.6 3.4 -8 3.6 -3.2 0.2 -7.1 -0.3 -8.8 -1z"/>
  <path d="M620 503.1 c1.4 -1.1 5.3 -3 8.8 -4.2 18.7 -6.3 42.9 -6.5 63.2 -0.5 5.3 1.5 12.6 5.3 11.9 6.1 -0.2 0.2 -9.2 -0.3 -19.9 -1.1 -29.5 -2 -44.9 -1.8 -63 1.2 l-3.5 0.5 2.5 -2z"/>
  <path d="M303.6 491.4 c-0.9 -2.2 -0.8 -2.4 0.9 -2.4 0.8 0 1.5 0.9 1.5 2 0 2.4 -1.5 2.7 -2.4 0.4z"/>
  <path d="M533.5 473.1 c-1.7 -0.7 -1.7 -0.8 0.8 -1.3 1.5 -0.3 3.5 0.1 4.4 0.8 1.7 1.2 1.6 1.3 -0.7 1.3 -1.4 0 -3.4 -0.4 -4.5 -0.8z"/>
  <path d="M542.2 432.9 c1.8 -0.7 3.3 -0.7 4.5 0 1.4 0.8 0.9 1 -2.7 1 -4.2 -0.1 -4.3 -0.1 -1.8 -1z"/>
  <path d="M999.9 418.8 c-3.4 -6.6 -12.5 -15.4 -23.8 -23 -7.5 -5.1 -10.6 -6.7 -11.4 -5.9 -0.8 0.8 -0.7 1.9 0.6 4 2.3 3.9 2.2 6.1 -0.3 6.1 -1.3 0 -2 -0.7 -2 -2 0 -1.3 -0.7 -2 -1.9 -2 -2.4 0 -3.1 -2.6 -3.1 -12 0 -9.1 -1.9 -18.3 -5.4 -27 -2.9 -7.1 -26.4 -47 -27.7 -47 -0.4 0 -1.1 0.9 -1.4 2 -0.5 1.5 -1.5 2 -4.4 2 -3.7 0 -3.7 -0.1 -14.8 -16.7 -24.6 -37.3 -28 -44.6 -25.7 -56.2 0.8 -4 1.7 -3.9 4 0.7 1 2 3.7 6.4 6 9.7 4.1 6 4.5 6.2 16.6 11.4 6.7 2.9 17.5 8.2 23.8 11.7 11.6 6.4 16 7.8 16 4.9 0 -0.8 0.5 -1.5 1 -1.5 0.6 0 1 0.6 1 1.4 0 1.8 5.8 6.2 11.3 8.6 2.4 1.1 5.2 2.9 6.2 4 1 1.1 3.3 3 5.1 4.1 2.2 1.3 3.1 2.5 2.7 3.7 -0.3 1.3 1.5 3.1 6.9 6.7 7.5 5.1 26.7 23 25.7 23.9 -0.3 0.3 -6.1 -1.4 -12.9 -3.9 -14.3 -5.2 -15.2 -5.3 -14.6 -2.2 0.3 1.2 0.7 4.8 1 8 l0.6 5.7 -5.9 -3 c-3.3 -1.6 -7.6 -4.4 -9.6 -6.1 -4.2 -3.7 -7.1 -3.4 -6 0.8 0.3 1.4 4.4 7.6 8.9 13.7 14.3 19 24.8 37.9 31.6 57.3 3.5 9.8 6.2 22.3 4.9 22.3 -0.5 0 -1.8 -1.9 -3 -4.2z"/>
  <path d="M320 413.8 c0 -5.2 6.1 -21.8 13.4 -36.3 8.2 -16.1 19.7 -34 27.9 -43 3 -3.3 5.2 -6.6 5 -7.2 -0.8 -2.3 -5.5 -1.4 -9 1.7 -1.8 1.7 -4.3 3 -5.3 3 -2 0 -2 0 0 -3.7 1.1 -2.1 2 -4.8 2 -6 0 -3.5 -4.8 -3 -19.4 2.2 -7 2.5 -13.9 4.5 -15.4 4.5 -2.4 0 -2.1 -0.6 4.8 -7.6 7.4 -7.4 18.3 -15.5 22.8 -16.9 1.4 -0.4 2.2 -1.3 2 -2.3 -0.4 -2.3 3.1 -5.7 14.4 -14.1 5.4 -4 10 -7.7 10.3 -8.2 1.1 -1.6 2.5 -1 2.5 1.2 0 1.9 0.6 1.8 7.8 -2.2 14.4 -8 28.1 -14.7 33.4 -16.4 4 -1.3 7 -3.4 12.3 -8.6 3.9 -3.8 7.6 -6.9 8.3 -6.9 0.6 0 1.2 -0.6 1.2 -1.3 0 -0.8 0.8 -2.2 1.9 -3.1 1.7 -1.6 1.9 -1.6 2.5 0.6 0.3 1.3 0.6 3.6 0.6 5.1 0 4.3 -8 19.4 -18.9 35.7 -5.4 8 -11.6 17.7 -13.9 21.7 -4.8 8.2 -7.2 10.3 -11.9 10.3 -3.2 0 -3.3 -0.1 -3.3 -4.1 l0 -4.2 -3.4 4.4 c-5.7 7.6 -12.6 18.7 -14.1 22.8 -0.7 2.2 -2.9 6.2 -4.9 9 -7.5 11 -10.6 23.7 -10.6 44.4 l0 14.7 -4.5 0 c-3.8 0 -4.5 0.3 -4.5 2 0 1.5 -0.7 2 -2.5 2 -2.5 0 -2.5 0 -1.1 -3.7 0.8 -2.1 1.4 -4.5 1.5 -5.3 0 -0.8 0.3 -2.8 0.7 -4.4 0.7 -2.8 0.6 -2.8 -2.7 -2.1 -8.2 1.7 -13.9 6.3 -26.6 21.2 l-3.2 3.8 -0.1 -2.7z"/>
  <path d="M342.2 274.8 c-4.5 -15.5 -7.2 -35.9 -9.3 -69.3 -1.3 -21 -0.7 -64.3 1.1 -76.5 6.3 -43.7 19.3 -70.2 41.6 -85 9.4 -6.1 14.1 -7.4 25.7 -6.8 10.4 0.6 20.7 3.9 33.4 10.8 22.5 12.1 80.8 59.9 99.4 81.5 8.7 10.1 16.2 21.1 18.5 27.2 1.3 3.3 2.1 4.2 3.4 3.8 5.4 -1.7 17 -3.6 27.5 -4.5 12.8 -1.1 22.8 -0.8 55.8 1.7 19.8 1.5 21.7 1.5 37 -0.3 23 -2.7 53.7 -2.5 70.7 0.4 6.9 1.2 14 2.6 15.7 3.1 l3.3 0.9 15.9 -20.1 c36.8 -46.6 93 -92.6 125.1 -102.5 20.1 -6.2 33.4 -2.5 50.1 13.9 13.5 13.2 20.9 27 26.4 48.6 10.2 40.9 8.9 112.6 -3.1 165.6 -1.6 6.7 -1.6 6.7 -5 6.7 -3.2 0 -3.4 -0.2 -5.1 -5.7 -2.3 -7.6 -2.3 -22.7 0.2 -44.8 1.5 -13.4 1.9 -24.2 2 -50.5 0 -36.4 -1 -46.4 -5.9 -58 -1.3 -3 -3.1 -8 -4 -11 -3.7 -12.9 -16.9 -29.1 -28.5 -34.9 -3.3 -1.7 -6.1 -3.6 -6.1 -4.1 0 -0.5 -1.8 -1.4 -4.1 -2 -8.4 -2.3 -20.8 2.4 -40.5 15.2 -12.2 7.9 -30.1 20.8 -40.4 29.2 -8.7 7 -31.6 28.9 -40.8 39.1 -6.2 6.8 -16.2 20.8 -16.2 22.6 0 0.5 1.2 0.9 2.6 0.9 2.6 0 2.6 0.1 2.2 6 l-0.4 6 17.9 20.2 c20.6 23.3 32 37.1 36.1 44.3 1.6 2.8 4.7 7 6.8 9.4 5.3 6.1 9.8 15.8 9.8 21.1 l0 4.2 -5.9 -0.4 c-4.8 -0.3 -7.5 -1.3 -14.2 -5.3 -10.6 -6.1 -25.3 -17 -32.2 -23.7 -2.8 -2.8 -8.6 -7.7 -12.7 -10.8 -4.1 -3.1 -8.4 -6.7 -9.4 -7.8 -2.5 -2.9 -3.6 -2.8 -3.6 0.3 0 2.2 -0.4 2.5 -3.3 2.5 -4.3 0 -8.8 -3.3 -19.2 -13.9 -13.8 -14.2 -16.8 -15.1 -37.8 -12.1 -7.8 1.1 -16.7 2.7 -19.7 3.6 -10.8 3 -21.6 6.6 -28.2 9.5 -5.5 2.4 -8 2.9 -14.8 2.9 -7.1 0 -9.4 -0.5 -18.3 -4 -18.7 -7.3 -44.6 -13 -58.6 -13 -11.8 0 -21.3 5.5 -26.7 15.5 -1.6 3 -2.3 3.5 -5.6 3.5 -2.5 0 -4 -0.6 -4.7 -1.7 -1 -1.6 -1.6 -1.2 -5.6 3.4 -6.3 7.1 -14.6 12.5 -18.8 12.1 -2.9 -0.3 -3.5 0.2 -6.6 4.7 -7 10.4 -17.2 19.2 -33.9 29.2 -7.3 4.4 -11.5 6.3 -13.8 6.3 l-3.4 0 0 -5 c0 -6.1 1.9 -11 5.2 -13.6 1.3 -1 2.7 -2.6 3 -3.4 1.3 -3.4 30.7 -44.1 37.6 -52 14.7 -16.8 22.2 -28.4 22.2 -34.1 0 -1.6 0.7 -3.2 1.6 -3.7 1.3 -0.7 -4 -7 -27.6 -32.6 -30.3 -33 -36.3 -38.6 -55.8 -52.3 -19 -13.3 -36.2 -22.5 -45 -23.9 -3.5 -0.5 -4.4 -0.3 -6.5 1.8 -1.3 1.3 -4.5 3.2 -7 4.2 -10.2 3.9 -21.5 15.7 -29.1 30.5 -6.1 11.9 -8.6 20.6 -8.6 30.1 0 4.9 -0.6 8.8 -1.5 10.7 -3.7 7.3 -4.4 31 -2.1 65.8 3.1 46.1 2.9 63.7 -1 73.3 -2.6 6.5 -4.7 5.6 -7.2 -3z"/>
 </g>
 <g fill="#b77948">
  <path d="M39.4 1083.5 c0 -10.4 0.2 -14.6 0.3 -9.2 0.2 5.4 0.2 13.9 0 19 -0.1 5.1 -0.3 0.7 -0.3 -9.8z"/>
  <path d="M322 1042 c-1.1 -0.7 0.1 -1 4 -1 3 -0.1 7.2 -0.4 9.3 -0.8 l3.8 -0.7 -2.6 -3.5 c-7 -9.5 -12.4 -40 -12.5 -70.5 0 -13.3 1.9 -43.5 2.9 -45.3 0.5 -0.8 3.6 8 7.6 21 7.8 25.8 12.5 38.2 17.2 45.5 1.8 2.9 4.5 8.1 5.9 11.5 4 9.5 12 25.3 17.5 34.5 4.9 8.1 5 8.2 9.7 8.8 2.6 0.3 5.4 0.8 6.2 0.9 0.8 0.2 -14 0.4 -33 0.5 -20.8 0 -35.1 -0.3 -36 -0.9z"/>
  <path d="M425.5 1042.2 c3.2 -1.5 44.5 -2.6 44.5 -1.3 0 0.7 -3.8 1.1 -11.7 1.1 -6.5 0 -17 0.2 -23.3 0.5 -7.1 0.4 -10.7 0.2 -9.5 -0.3z"/>
  <path d="M954.8 1042.3 c-7.1 -0.2 -12.8 -0.5 -12.8 -0.7 0 -1.6 5.2 -11.8 13.1 -25.6 5 -8.9 9.9 -18.5 10.8 -21.4 0.9 -2.8 2.9 -6.9 4.4 -9.2 4 -5.9 9 -19.2 15.4 -40.9 3 -10.4 5.9 -19.4 6.3 -19.8 1.3 -1.5 4 8.4 5 18.3 2.4 22.2 -4.9 71.7 -13.7 93.7 l-2.5 6.3 -6.7 -0.2 c-3.6 -0.1 -12.3 -0.4 -19.3 -0.5z"/>
  <path d="M422 929.2 c-4.7 -4.8 -11 -12.3 -14 -16.6 -3 -4.4 -8.3 -12.1 -11.8 -17 -26.2 -37.6 -44.4 -80.7 -54.2 -128.4 -4.6 -22.8 -6.1 -35.9 -6.7 -60.3 -0.8 -32.8 1.7 -59.2 6.8 -70.9 l2 -4.5 3.7 4 c9.9 10.9 12.2 13.2 16.1 16.4 2.3 1.8 6 5.6 8.2 8.5 2.2 2.8 5.2 6.5 6.5 8.1 4 4.7 9.4 14.5 9.4 17 0 3.7 3.5 12.6 9.3 23.6 3 5.7 5.8 11.5 6.2 12.8 0.4 1.3 2.1 3.8 3.9 5.5 6.3 6.3 21 27.6 19.1 27.6 -1.1 0 -4.7 -2.1 -16 -9.5 -10.6 -7 -26.3 -15.5 -28.6 -15.5 -1.4 0 -0.6 3.8 3.3 16.5 6.6 20.9 26.2 55.4 44.5 78 23.1 28.6 54.5 58.2 80.4 75.6 4.9 3.3 8.9 6.2 8.9 6.5 0 0.3 -0.3 0.3 -0.7 0.1 -1.3 -0.8 -39.6 -15.4 -43.8 -16.7 -2.2 -0.7 -4.7 -1.8 -5.5 -2.5 -1.5 -1.3 -55.5 -28.5 -56.5 -28.5 -1.4 0 -0.3 16.9 1.5 24.1 2.6 10.1 12.8 35.4 17.3 42.8 4.8 7.9 5 8.8 2.4 10.6 -1.2 0.8 -2.4 1.5 -2.7 1.5 -0.3 0 -4.3 -4 -9 -8.8z"/>
  <path d="M885 935.5 c0 -0.3 3.9 -8.2 8.6 -17.6 12.3 -24.7 18.7 -45.6 16.8 -55.4 l-0.6 -3.2 -5.1 2.8 c-2.9 1.5 -10.9 5.3 -17.9 8.3 -16 7 -28.4 13.2 -32.4 16.2 -1.7 1.4 -5.5 3.1 -8.5 4 -3 0.9 -10.2 3.8 -16.2 6.5 -11.7 5.3 -20.7 8.3 -20.7 6.9 0 -1.1 9.4 -9.2 28 -24 25.2 -20.1 47.4 -43.7 67.6 -72.1 19.8 -27.7 33.5 -55.4 35.9 -72.2 l0.6 -4.7 -5.3 2 c-10.6 4.2 -34.7 19.4 -39.6 25 -3.2 3.8 -10.8 8.7 -11.8 7.7 -0.3 -0.3 3.7 -5.3 8.8 -11.2 5.1 -5.9 11.9 -14.6 15 -19.3 3.1 -4.8 7.2 -10.5 9.1 -12.7 3.5 -4 18.7 -39.2 20.8 -48 0.8 -3.3 2.9 -5.8 12.2 -14.5 6.2 -5.7 13.8 -13.6 16.9 -17.6 4.9 -6.2 10.4 -11.4 12.1 -11.4 1.8 0 6.5 33.8 7.8 55.6 2.5 42.8 -4.1 83.7 -21 130.6 -9.7 27 -21.9 50.8 -39.4 76.6 -9.8 14.5 -15.2 21.5 -26.7 34 -6.8 7.5 -7.8 8.2 -11.2 8.2 -2.1 0 -3.8 -0.2 -3.8 -0.5z"/>
  <path d="M1244.3 679.5 c0 -3.3 0.2 -4.5 0.4 -2.7 0.2 1.8 0.2 4.5 0 6 -0.2 1.5 -0.4 0 -0.4 -3.3z"/>
  <path d="M343 488.3 c-3.4 -10.7 -4.6 -26.2 -3.2 -41.7 1.3 -14.1 3 -21.6 8.4 -36.6 l3.4 -9.5 4.2 -0.3 4.2 -0.3 0 -14.7 c0 -20.6 3.1 -33.3 10.6 -44.3 2 -2.8 4.2 -6.9 5 -9.2 3.2 -8.9 25.1 -38.1 26.2 -34.8 0.2 0.7 -0.4 4.3 -1.3 8.2 -1 3.8 -1.5 7.2 -1.3 7.4 1.1 1.2 5.2 -3.3 9 -9.8 2.3 -4 8.5 -13.7 13.9 -21.7 11.6 -17.3 19.8 -32.9 17.9 -34 -1.7 -1 1.1 -5.6 11.1 -18 7.3 -9 21.5 -23.6 25 -25.6 0.9 -0.5 1.9 -2.5 2.3 -4.4 l0.6 -3.6 -10.2 -1.9 -10.3 -2 0.2 -3 c1.1 -12.7 0.8 -14.9 -2.7 -21.5 -6.7 -12.8 -7.2 -14.1 -6.6 -14.8 0.4 -0.4 1.6 0.4 2.5 1.7 1.8 2.4 1.9 2.4 2.9 0.4 0.9 -1.6 0.2 -3.8 -3.5 -11.9 -8.8 -18.6 -13.8 -26.1 -25.2 -37.4 -20 -19.9 -33.6 -25.8 -45.2 -19.7 -2.5 1.4 -5.8 4.4 -7.9 7.2 l-3.5 5 0.1 32 c0.1 49.8 2.2 68 11 94.3 5 15.3 5.7 23.1 2.5 31.7 -1 2.8 -2.8 7.7 -4 11 -1.2 3.3 -2.4 8.6 -2.8 11.8 l-0.6 5.8 -10.8 8.1 c-6 4.4 -10.9 8.4 -10.9 8.9 0 0.9 -4.2 3 -4.8 2.4 -0.1 -0.1 -1.4 -5.4 -2.7 -11.8 l-2.5 -11.5 2.1 -4.6 c4.2 -9.6 4.4 -25.2 0.9 -75.6 -2 -28.4 -0.9 -57.5 2.5 -64.3 0.9 -1.9 1.5 -5.8 1.5 -10.7 0 -22.5 19.4 -53.6 37.7 -60.6 2.5 -1 5.7 -2.9 7 -4.2 2.2 -2.2 3.1 -2.4 9.1 -2 3.7 0.3 9.2 1.5 12.2 2.8 13.5 5.7 38.6 21.9 55.3 35.7 6.2 5.1 70.6 73.7 71.5 76.1 0.1 0.4 -1.6 0.6 -3.8 0.4 -4.3 -0.4 -4.4 -0.3 -5.5 6 -0.8 4.8 -8.2 15.9 -18.8 28.3 -8 9.2 -39.2 52 -40.5 55.5 -0.3 0.8 -1.7 2.4 -3 3.4 -2.7 2.1 -5.2 7.3 -5.2 10.7 0 2 0.2 2 5.8 -1.1 17.6 -9.9 31.8 -21.5 38.7 -31.6 7.4 -11 17.6 -22.4 17.5 -19.7 0 0.4 -1.6 3.3 -3.5 6.3 -4.4 6.8 -4.6 8.7 -0.7 6.3 6.2 -3.9 11.4 -8.8 16.4 -15.4 l5.2 -7.1 1.6 4.8 c0.8 2.6 2 4.9 2.5 5.1 0.6 0.2 1.9 -1.3 2.9 -3.2 3 -5.5 8.5 -10.5 14.5 -13.3 4.6 -2.1 6.9 -2.5 15 -2.5 16.2 0.1 42.3 5.7 61.8 13.3 12.7 5 17.7 5.2 27.1 1.1 6.6 -2.9 17.4 -6.5 28.2 -9.5 9.8 -2.7 34 -5.8 40.4 -5.2 8.8 0.9 13 3.4 23.8 14.3 5.3 5.4 11.1 10.6 12.7 11.6 3.1 1.8 3.1 1.8 3.1 -0.3 0 -1.2 -1.4 -4.1 -3 -6.5 l-3 -4.4 2.7 1 c1.6 0.5 5.5 3.2 8.8 6 3.3 2.7 9.4 7.5 13.5 10.8 4.1 3.2 9.9 8.1 12.7 10.9 14.6 14.3 46.3 33.7 46.3 28.2 0 -2.6 -6.1 -13.8 -9.8 -18.1 -2.1 -2.4 -5.2 -6.6 -6.8 -9.4 -4.8 -8.3 -31 -39.6 -54.3 -64.8 -2.4 -2.7 -2.5 -2.8 -0.8 -5.6 3.1 -5.2 2.4 -6 -4 -5.4 l-5.8 0.6 2.2 -2.4 c1.1 -1.3 3.7 -5.2 5.7 -8.6 5.8 -9.9 14.1 -19.7 30.7 -36 16.7 -16.4 27.6 -25.6 45.8 -38.7 26.2 -18.8 40.6 -26.8 51.7 -28.7 8.1 -1.4 15.7 -0.5 18.2 2 0.9 1 4.1 3.1 7.1 4.6 10.7 5.4 24.1 22 27.7 34.5 0.9 3 2.7 8 4 11 5 11.8 5.9 21.3 5.9 61 0 28.9 -0.4 39.9 -1.9 53 -2.4 21.4 -2.5 32 -0.3 39.1 1.5 5.1 1.9 5.6 4.1 5.2 2.3 -0.5 2.4 -0.4 1.5 4.3 -0.5 2.6 -2.3 9.8 -4.1 16 l-3.1 11.3 -2.9 -1.5 c-1.6 -0.8 -4.6 -3 -6.6 -4.7 -2 -1.8 -5.4 -4 -7.6 -5 -2.1 -1 -5.4 -2.9 -7.2 -4.4 -3.1 -2.3 -3.3 -2.9 -2.8 -6.2 0.5 -3.2 -0.6 -6.4 -7.2 -21.5 -6.5 -14.7 -7.6 -18.1 -6.6 -19.4 3.8 -5.3 5.2 -8.2 7.5 -15.1 6.7 -20.3 12.1 -60.4 14.3 -104.7 0.8 -17.7 -0.6 -23.6 -7.1 -30.1 -4.1 -4.2 -4.4 -4.3 -10.8 -4.3 -4.2 0 -8.6 0.7 -12.1 2.1 -13.2 4.9 -29.6 19.2 -39.3 34 -5.1 8 -16.8 31.7 -16 32.5 0.3 0.3 1.4 0.1 2.5 -0.5 3.9 -2.1 4 -1 0.5 7.6 -3.4 8.6 -3.4 8.7 -2.4 16.6 0.6 4.4 1.1 9.5 1.1 11.3 l0 3.4 -10.5 3.2 c-8.5 2.7 -10.5 3.7 -10.5 5.2 0 1 5.8 7.8 13.3 15.5 11 11.4 22.7 26 22.7 28.5 0 0.3 -0.7 0.6 -1.5 0.6 -3.4 0 -0.3 9.1 7.7 22.5 8.1 13.4 28 43.5 28.9 43.5 0.4 0 1.4 -1.8 2.3 -4 1 -2.6 2.2 -4 3.3 -4 2.1 0.1 26.7 40.7 30.9 51 3.5 8.7 5.4 17.9 5.4 27 0 9.1 0.6 11.7 3 12.3 0.9 0.2 2 1.7 2.4 3.3 0.4 1.6 3 8.2 5.7 14.7 7.9 18.8 9.3 25.9 9.3 47.2 0 16.9 -0.8 24.3 -3.5 33.3 -0.6 1.7 -1.4 3.2 -1.8 3.2 -0.4 0 -2.1 -5.5 -3.8 -12.3 -10.3 -41.3 -30.3 -60.3 -61.4 -58.4 -13 0.8 -37.9 9.9 -37.2 13.5 0.2 0.7 -0.7 1.2 -2 1.2 -1.3 0 -3.6 1.4 -5.3 3.1 -3.1 3.3 -20.5 15 -31.9 21.6 -12.2 7 -22 9.3 -42.5 9.8 -8 0.3 -13.6 0.2 -12.5 -0.1 1.1 -0.2 6.6 -1.4 12.2 -2.5 21.1 -4.1 34.3 -10.3 46.6 -21.8 4.4 -4.2 10.2 -10.5 12.9 -14.1 8.5 -11.2 14.8 -26.9 14.8 -36.9 0 -3.5 -0.3 -4.1 -2.6 -4.7 -2.7 -0.7 -8.7 -0.1 -11.8 1.1 -1.3 0.6 -0.8 -0.5 1.6 -3.7 3.2 -4.2 5.6 -11.7 4.3 -13.7 -0.2 -0.5 2.4 -0.2 5.8 0.6 3.4 0.8 9.3 1.8 13.1 2.2 l6.8 0.7 -0.6 -3.5 c-1 -6.3 -7.5 -17.9 -13.4 -24.1 -5.8 -6 -11.9 -10 -29.2 -18.9 -25.1 -12.9 -48.3 -16.7 -69.5 -11.5 -3.3 0.9 -10.3 3.6 -15.5 6.1 -7.5 3.6 -10.9 6 -16 11.2 -12.1 12.3 -15.9 24.3 -16.7 51.6 -0.5 17.7 -0.5 18.1 2.1 23.8 3.1 6.8 5.3 18.7 6.5 34.7 0.8 10.5 1.2 12.2 4.6 19 3 5.9 7.5 17.1 7.5 18.6 0 0.1 -1.7 -0.2 -3.7 -0.8 -5.4 -1.5 -13.9 -6.5 -17.5 -10.4 -7.1 -7.5 -28.7 -17.8 -44.3 -21.1 -10.8 -2.3 -27.8 -1.4 -38 2.1 -9.9 3.3 -27.3 11.8 -38 18.5 -17.4 10.9 -21.6 13.3 -22 12.9 -1 -0.9 2.8 -11.4 6 -16.9 3 -5.1 3.4 -7.1 5.9 -26.5 3.2 -24.6 3.8 -27.4 7.7 -33.6 2.6 -4 3.1 -6.2 4.1 -16.1 1.9 -18.6 -0.8 -29.4 -11.1 -44.6 -16 -23.5 -39.6 -32.2 -76.6 -28.1 -12.4 1.4 -17.3 2.6 -27.6 7.1 -18.1 7.8 -24.3 12.2 -34.7 24.3 -6 7 -12.2 18.5 -12.2 22.7 0 2.7 0.3 2.9 3.8 2.9 2 -0.1 6.6 -0.7 10.2 -1.5 3.6 -0.8 6.8 -1.4 7.3 -1.5 0.4 0 0.7 3.6 0.7 8 l0 8 -5.1 0 -5.2 0 0.7 5.1 c1.8 13.3 9.7 27.8 22.7 41.3 15.5 16.3 35.1 27.8 54.4 32.1 l6 1.3 -9.6 0.1 c-10.5 0.1 -24.2 -1.9 -30.5 -4.4 -7.5 -3.1 -34.1 -19.8 -40.8 -25.7 -13.6 -11.8 -31.4 -18 -51.9 -17.9 -14.5 0.1 -23.4 3.4 -33 12.1 -11.7 10.7 -21.2 32 -23.4 52.3 -0.3 3.1 -1 5.7 -1.4 5.7 -0.5 0 -1.8 -3 -2.9 -6.7z m527.8 -177.1 c-4.7 -6.6 -21.3 -17.7 -31.6 -21.2 -2.3 -0.8 -2.4 -0.8 -0.8 0.3 1 0.6 7.1 4.6 13.5 8.8 6.4 4.2 13.4 9 15.6 10.7 4.7 3.7 5.1 3.8 3.3 1.4z m-387.3 -21.1 c-0.6 -0.6 -10.9 4.6 -13.5 6.9 -1.4 1.1 1.2 0.2 5.7 -2.2 4.4 -2.4 8 -4.5 7.8 -4.7z"/>
 </g>
 <g fill="#66341e">
  <path d="M553.3 1514.5 c0 -2.2 0.2 -3 0.4 -1.7 0.2 1.2 0.2 3 0 4 -0.3 0.9 -0.5 -0.1 -0.4 -2.3z"/>
  <path d="M697.4 1492.5 c0 -13.2 0.2 -18.5 0.3 -11.7 0.2 6.8 0.2 17.6 0 24 -0.1 6.4 -0.3 0.9 -0.3 -12.3z"/>
  <path d="M1171.8 673.3 c5 -0.2 13.4 -0.2 18.5 0 5 0.1 0.9 0.3 -9.3 0.3 -10.2 0 -14.3 -0.2 -9.2 -0.3z"/>
  <path d="M96.7 385.3 c25.4 -0.2 67.2 -0.2 93 0 25.7 0.1 5 0.2 -46.2 0.2 -51.1 0 -72.2 -0.1 -46.8 -0.2z"/>
  <path d="M868.1 315.6 c-15.7 -11.6 -28 -19.6 -44 -28.7 -5 -2.9 -8.9 -5.4 -8.7 -5.6 0.9 -0.9 15.8 1.9 22.4 4.1 19.2 6.6 34.6 18.2 43.5 32.8 3.5 5.9 4.6 8.9 3 8.7 -0.5 0 -7.7 -5.1 -16.2 -11.3z"/>
 </g>
 <g fill="#4b2a1b">
  <path d="M599.8 1536.3 c1.7 -0.2 4.7 -0.2 6.5 0 1.7 0.2 0.3 0.4 -3.3 0.4 -3.6 0 -5 -0.2 -3.2 -0.4z"/>
  <path d="M631.8 1536.3 c1.7 -0.2 4.7 -0.2 6.5 0 1.7 0.2 0.3 0.4 -3.3 0.4 -3.6 0 -5 -0.2 -3.2 -0.4z"/>
  <path d="M406.2 1042.3 c5.9 -0.2 15.8 -0.2 22 0 6.2 0.1 1.4 0.3 -10.7 0.3 -12.1 0 -17.2 -0.2 -11.3 -0.3z"/>
  <path d="M135.2 617.3 l-0.2 -15.2 -3.7 -0.4 -3.8 -0.4 3.8 -0.1 c2.3 -0.1 4 0.3 4.3 1.1 0.2 0.7 0.3 7.8 0.1 15.7 l-0.3 14.5 -0.2 -15.2z"/>
  <path d="M440.1 323.8 c1.5 -5.3 7.7 -13.4 15.3 -20.2 15.9 -14 22 -17.1 35.8 -18.2 l8.3 -0.6 -2.5 2.1 c-1.4 1.1 -5.9 3.9 -10 6.2 -4.1 2.4 -10.6 6 -14.3 8.2 -5.8 3.3 -14.9 10.2 -30.2 23 l-3.4 2.8 1 -3.3z"/>
  <path d="M796 91.7 c0 -0.2 1.5 -1.6 3.3 -3.3 l3.2 -2.9 -2.9 3.3 c-2.8 3 -3.6 3.7 -3.6 2.9z"/>
 </g>
</svg>